<svg width="20" height="20" viewBox="0 0 20 20" fill="none" xmlns="http://www.w3.org/2000/svg">
<path d="M14.749 2.5C16.2678 2.5 17.499 3.73122 17.499 5.25C17.499 6.76878 16.2678 8 14.749 8C13.8748 8 13.0975 7.59092 12.5938 6.95508L7.93848 9.4248C7.978 9.61038 7.99999 9.80264 8 10C8 10.2621 7.96007 10.5148 7.8916 10.7549L12.4834 13.1914C12.9794 12.4718 13.809 12 14.749 12C16.2678 12 17.499 13.2312 17.499 14.75C17.499 16.2688 16.2678 17.5 14.749 17.5C13.2302 17.5 11.999 16.2688 11.999 14.75C11.999 14.6497 12.0052 14.5507 12.0156 14.4531L7.22461 11.9102C6.72464 12.4269 6.02584 12.75 5.25 12.75C3.73122 12.75 2.5 11.5188 2.5 10C2.50009 8.48129 3.73127 7.25 5.25 7.25C6.09293 7.25 6.84614 7.63037 7.35059 8.22754L12.0439 5.73633C12.0157 5.57836 11.999 5.41608 11.999 5.25C11.999 3.73122 13.2302 2.5 14.749 2.5ZM14.749 13.333C13.9666 13.333 13.332 13.9676 13.332 14.75C13.332 15.5324 13.9666 16.167 14.749 16.167C15.5314 16.167 16.166 15.5324 16.166 14.75C16.166 13.9676 15.5314 13.333 14.749 13.333ZM5.25 8.58301C4.46765 8.58301 3.8331 9.21767 3.83301 10C3.83301 10.7824 4.4676 11.417 5.25 11.417C6.0324 11.417 6.66699 10.7824 6.66699 10C6.6669 9.21767 6.03235 8.58301 5.25 8.58301ZM14.749 3.83301C13.9666 3.83301 13.332 4.4676 13.332 5.25C13.332 6.0324 13.9666 6.66699 14.749 6.66699C15.5314 6.66699 16.166 6.0324 16.166 5.25C16.166 4.4676 15.5314 3.83301 14.749 3.83301Z" fill="#33363D"/>
</svg>
