<svg width="16" height="16" viewBox="0 0 16 16" fill="none" xmlns="http://www.w3.org/2000/svg">
<mask id="mask0_557_3350" style="mask-type:alpha" maskUnits="userSpaceOnUse" x="0" y="0" width="16" height="16">
<rect width="16" height="16" fill="#D9D9D9"/>
</mask>
<g mask="url(#mask0_557_3350)">
<path d="M8.33333 7.96602C8.65556 7.61046 8.90278 7.2049 9.075 6.74935C9.24722 6.29379 9.33333 5.82157 9.33333 5.33268C9.33333 4.84379 9.24722 4.37157 9.075 3.91602C8.90278 3.46046 8.65556 3.0549 8.33333 2.69935C9 2.78824 9.55556 3.08268 10 3.58268C10.4444 4.08268 10.6667 4.66602 10.6667 5.33268C10.6667 5.99935 10.4444 6.58268 10 7.08268C9.55556 7.58268 9 7.87713 8.33333 7.96602ZM12 13.3327V11.3327C12 10.9327 11.9111 10.5521 11.7333 10.191C11.5556 9.82991 11.3222 9.51046 11.0333 9.23268C11.6 9.43268 12.125 9.69102 12.6083 10.0077C13.0917 10.3243 13.3333 10.766 13.3333 11.3327V13.3327H12ZM13.3333 8.66602V7.33268H12V5.99935H13.3333V4.66602H14.6667V5.99935H16V7.33268H14.6667V8.66602H13.3333ZM5.33333 7.99935C4.6 7.99935 3.97222 7.73824 3.45 7.21602C2.92778 6.69379 2.66667 6.06602 2.66667 5.33268C2.66667 4.59935 2.92778 3.97157 3.45 3.44935C3.97222 2.92713 4.6 2.66602 5.33333 2.66602C6.06667 2.66602 6.69444 2.92713 7.21667 3.44935C7.73889 3.97157 8 4.59935 8 5.33268C8 6.06602 7.73889 6.69379 7.21667 7.21602C6.69444 7.73824 6.06667 7.99935 5.33333 7.99935ZM0 13.3327V11.466C0 11.0882 0.0972222 10.741 0.291667 10.4243C0.486111 10.1077 0.744444 9.86602 1.06667 9.69935C1.75556 9.3549 2.45556 9.09657 3.16667 8.92435C3.87778 8.75213 4.6 8.66602 5.33333 8.66602C6.06667 8.66602 6.78889 8.75213 7.5 8.92435C8.21111 9.09657 8.91111 9.3549 9.6 9.69935C9.92222 9.86602 10.1806 10.1077 10.375 10.4243C10.5694 10.741 10.6667 11.0882 10.6667 11.466V13.3327H0ZM5.33333 6.66602C5.7 6.66602 6.01389 6.53546 6.275 6.27435C6.53611 6.01324 6.66667 5.69935 6.66667 5.33268C6.66667 4.96602 6.53611 4.65213 6.275 4.39102C6.01389 4.1299 5.7 3.99935 5.33333 3.99935C4.96667 3.99935 4.65278 4.1299 4.39167 4.39102C4.13056 4.65213 4 4.96602 4 5.33268C4 5.69935 4.13056 6.01324 4.39167 6.27435C4.65278 6.53546 4.96667 6.66602 5.33333 6.66602ZM1.33333 11.9993H9.33333V11.466C9.33333 11.3438 9.30278 11.2327 9.24167 11.1327C9.18056 11.0327 9.1 10.9549 9 10.8993C8.4 10.5993 7.79445 10.3743 7.18333 10.2243C6.57222 10.0743 5.95556 9.99935 5.33333 9.99935C4.71111 9.99935 4.09444 10.0743 3.48333 10.2243C2.87222 10.3743 2.26667 10.5993 1.66667 10.8993C1.56667 10.9549 1.48611 11.0327 1.425 11.1327C1.36389 11.2327 1.33333 11.3438 1.33333 11.466V11.9993Z" fill="#1C1B1F"/>
</g>
</svg>
