<svg width="20" height="20" viewBox="0 0 20 20" fill="none" xmlns="http://www.w3.org/2000/svg">
<path fill-rule="evenodd" clip-rule="evenodd" d="M6.53598 2.50057C6.54846 2.50005 6.56096 2.49989 6.57345 2.50007C7.38823 2.51215 8.18705 2.72887 8.88949 3.13059C9.29938 3.365 9.63744 3.72186 9.90312 4.06223C9.93594 4.10429 9.96813 4.14672 9.99968 4.18935C10.0312 4.14672 10.0634 4.10429 10.0962 4.06223C10.3619 3.72186 10.7 3.365 11.1099 3.13059C11.8123 2.72887 12.6111 2.51215 13.4259 2.50007C13.4384 2.49989 13.4509 2.50005 13.4634 2.50057C14.7509 2.55389 15.9707 3.09078 16.8539 4.00382C17.7351 4.91478 18.2092 6.1269 18.1633 7.37803C18.1596 8.56035 17.6624 9.75439 16.9897 10.843C16.3087 11.9452 15.4082 13.0023 14.5158 13.9198C12.7338 15.7519 10.9141 17.0977 10.7338 17.2194L10.7336 17.2195L10.3725 17.4631C10.1472 17.615 9.85219 17.615 9.6269 17.4631L9.2658 17.2195L9.26405 17.2184C9.08536 17.097 7.26593 15.7516 5.4836 13.9194C4.59114 13.002 3.6907 11.945 3.00963 10.8429C2.33692 9.75432 1.83974 8.56034 1.83606 7.37801C1.79016 6.12689 2.26427 4.91477 3.14544 4.00382C4.02863 3.09078 5.24843 2.55389 6.53598 2.50057ZM6.57237 3.83359C5.62407 3.87756 4.7382 4.27498 4.10379 4.93083C3.46625 5.58992 3.13391 6.45585 3.16885 7.33841C3.16919 7.3472 3.16937 7.35599 3.16937 7.36478C3.16937 8.19531 3.52659 9.14311 4.14386 10.142C4.75527 11.1313 5.58421 12.1106 6.43933 12.9897C7.29206 13.8663 8.15624 14.6284 8.82636 15.1842C9.16094 15.4617 9.44581 15.6866 9.65489 15.8475C9.75944 15.9279 9.84464 15.992 9.90726 16.0384C9.9386 16.0616 9.96385 16.0801 9.98272 16.0937L9.99973 16.1059L10.0172 16.0934C10.0359 16.0799 10.0611 16.0615 10.0924 16.0384C10.1549 15.9921 10.2401 15.9281 10.3446 15.8477C10.5536 15.687 10.8384 15.4621 11.173 15.1846C11.8431 14.629 12.7073 13.8668 13.56 12.9902C14.4151 12.111 15.2441 11.1316 15.8555 10.1421C16.4728 9.1432 16.83 8.19532 16.83 7.36478C16.83 7.35599 16.8302 7.3472 16.8305 7.33841C16.8654 6.45585 16.5331 5.58992 15.8956 4.93083C15.2612 4.27498 14.3753 3.87756 13.427 3.83359C12.8413 3.84537 12.2707 4.00272 11.7718 4.28802C11.5784 4.39864 11.3662 4.60218 11.1473 4.88262C10.9331 5.15704 10.7416 5.46676 10.5762 5.7516C10.4569 5.95706 10.2373 6.0835 9.99968 6.0835C9.76209 6.0835 9.54247 5.95706 9.42316 5.7516C9.25776 5.46676 9.06624 5.15704 8.85205 4.88262C8.63316 4.60218 8.421 4.39864 8.22757 4.28802C7.72869 4.00272 7.15804 3.84537 6.57237 3.83359Z" fill="#33363D"/>
</svg>
