<svg width="170" height="258" viewBox="0 0 170 258" fill="none" xmlns="http://www.w3.org/2000/svg">
<path d="M0.675287 211.578L1.74365 217.073C2.04231 218.609 1.97175 220.158 1.57588 221.61L6.84353 222.23C7.56732 222.315 8.23537 222.661 8.72289 223.202L11.8381 226.664C12.2472 227.118 12.7856 227.437 13.3809 227.577L20.9665 229.362L25.5048 230.795C27.5415 231.438 29.4348 229.473 28.7165 227.462C28.2856 226.255 28.8036 224.915 29.934 224.312L34.4145 221.923C35.0893 221.563 35.8775 221.479 36.6128 221.689C37.9775 222.079 39.4265 221.442 40.0612 220.172L41.3494 217.596C41.7411 216.813 42.4555 216.24 43.3051 216.027L52.6074 213.702C53.4688 213.486 54.3814 213.664 55.0995 214.186L59.0504 217.059C59.3258 217.259 59.5651 217.505 59.758 217.786L63.7709 223.623C64.4661 224.634 65.7784 225.014 66.9063 224.53C67.8528 224.125 68.4665 223.194 68.4665 222.164V217.862C68.4665 216.205 69.8096 214.862 71.4665 214.862H74.153C74.9903 214.862 75.7895 214.512 76.3574 213.897L78.4971 211.579C79.8089 210.158 82.1687 210.703 82.7244 212.555C82.8815 213.078 83.2058 213.536 83.6477 213.857L87.231 216.463C88.0072 217.028 88.4665 217.93 88.4665 218.889V222.953C88.4665 223.546 88.6418 224.125 88.9703 224.618L95.3017 234.115C95.4113 234.279 95.5368 234.432 95.6765 234.572L100.588 239.483C101.15 240.046 101.466 240.809 101.466 241.604V251.94C101.466 252.84 101.87 253.692 102.567 254.262L106.068 257.126L108.237 253.27C108.389 253 108.582 252.754 108.81 252.543L114.508 247.252C115.119 246.684 115.466 245.888 115.466 245.054V237.042C115.466 236.594 115.567 236.152 115.76 235.748L126.208 213.902C126.379 213.545 126.618 213.226 126.912 212.962L140.711 200.591C139.73 199.654 138.463 199.028 137.069 198.842C134.829 198.544 132.904 197.107 131.98 195.046L128.788 187.925C127.629 185.339 127.621 182.382 128.768 179.79L136.361 162.622C137.606 159.807 140.572 158.163 143.619 158.598C146.757 159.046 149.795 157.29 150.973 154.346L152.437 150.686C152.783 149.821 153.369 149.074 154.127 148.533L155.891 147.273C157.844 145.878 157.773 142.952 155.754 141.654C154.203 140.657 153.731 138.606 154.689 137.032L156.989 133.254C158.766 130.334 158.471 126.603 156.257 123.998L154.765 122.242C152.867 120.01 152.883 116.727 154.802 114.514C156.645 112.387 156.741 109.259 155.031 107.023L153.375 104.858C152.137 103.239 151.467 101.258 151.467 99.22V96.7763C151.467 91.6297 156.15 87.754 161.206 88.717C161.712 88.8134 162.251 88.8854 162.688 88.6142C164.067 87.7608 166.304 84.5049 167.967 75.8619C169.808 66.2877 167.553 56.2615 165.883 51.4787C165.621 50.7284 165.236 50.0349 164.77 49.3912C149.926 28.899 128.939 11.0668 117.115 2.3219C114.536 0.414274 111.179 0.00535798 108.161 1.09199L105.824 1.93317C102.503 3.12885 100.058 5.98708 99.3913 9.45357L98.7756 12.6551C98.2589 15.3416 96.6643 17.6991 94.3631 19.1784L92.6225 20.2974C91.529 21.0003 90.5831 21.9097 89.8377 22.9746L85.951 28.5271C84.6895 30.3291 82.7136 31.5011 80.5274 31.744L77.574 32.0722C76.0212 32.2447 74.7585 33.4024 74.452 34.9344C73.9691 37.349 71.253 38.5707 69.1261 37.3299L68.4374 36.9282C67.8016 36.5573 67.0787 36.3619 66.3427 36.3619H65.1754C63.1755 36.3619 61.3128 35.345 60.2314 33.6627L59.5616 32.6208C58.3604 30.7522 55.9659 30.0545 53.9489 30.9854C52.1757 31.8038 51.1426 33.6819 51.4007 35.6178L51.6898 37.7864C51.8586 39.052 51.2773 40.3005 50.2001 40.986L48.7621 41.9011C47.62 42.6279 47.5045 44.2516 48.5325 45.1326C49.3392 45.8241 49.4708 47.023 48.8333 47.873L46.5922 50.8611C45.8615 51.8353 45.4666 53.0202 45.4666 54.2379C45.4666 56.4449 46.7566 58.4482 48.7657 59.3615L49.4655 59.6796C50.4482 60.1263 51.2931 60.8283 51.9121 61.7126L52.6564 62.7759C53.7325 64.3132 53.6807 66.3724 52.5286 67.8535C51.566 69.0912 51.3579 70.7564 51.9864 72.1929L53.7214 76.1587C54.2061 77.2666 55.0237 78.1962 56.0607 78.8184L58.9148 80.5308C61.4174 82.0324 61.3541 85.6927 58.8386 87.1725C57.2107 88.1301 56.5241 90.1627 57.2681 91.8987C58.1655 93.9928 57.0047 96.3969 54.8067 96.9964L52.8797 97.5219C50.1086 98.2777 48.3885 101.042 48.9343 103.862L49.98 109.265C50.4916 111.908 48.4668 114.362 45.7746 114.362C42.5022 114.362 40.4384 117.883 42.0373 120.738L43.8012 123.888C44.7761 125.629 44.421 127.812 42.9446 129.155C41.2703 130.677 41.0673 133.238 42.4807 135.005L44.8614 137.98C47.5689 141.365 46.688 146.358 42.9859 148.611L42.4467 148.939C40.0793 150.38 38.9245 153.194 39.5967 155.882L40.2471 158.484C40.657 160.124 39.7716 161.81 38.189 162.403C37.4033 162.698 36.758 163.279 36.3827 164.03L34.3993 167.996C33.5685 169.658 31.2251 169.734 30.289 168.129C29.5847 166.921 27.9852 166.598 26.867 167.437L11.9413 178.631C8.89526 180.915 7.41085 184.731 8.11254 188.474L8.80798 192.183C9.51057 195.93 7.90775 199.734 4.73565 201.849C1.54428 203.977 -0.0567991 207.813 0.675287 211.578Z" fill="white" stroke="#A6C1E9"/>
</svg>
