<svg width="171" height="117" viewBox="0 0 171 117" fill="none" xmlns="http://www.w3.org/2000/svg">
<path d="M8.5727 104.737L16.2889 113.124C17.0365 113.937 17.2849 115.029 17.0529 116.027H21.2762C22.8212 116.027 24.1135 114.854 24.2623 113.316L25.2872 102.725C25.4137 101.418 26.3758 100.345 27.6614 100.077L36.2343 98.2912C37.0422 98.1229 37.745 97.6293 38.1774 96.9265L40.4051 93.3066C41.0631 92.2374 42.3173 91.691 43.5484 91.9372L48.2284 92.8732C48.7342 92.9743 49.2575 92.9434 49.7479 92.7832L72.1009 85.4843C72.9834 85.1962 73.6827 84.5157 73.9949 83.6415L77.7889 73.0185C78.2153 71.8245 79.3463 71.0275 80.6141 71.0275H86.4999V65.9135C86.4999 65.3352 86.6671 64.7692 86.9812 64.2837L91.0502 57.9953C91.6372 57.0882 92.6665 56.5667 93.7451 56.6302L98.94 56.9358C99.9176 56.9933 100.806 57.5243 101.319 58.3583L103.331 61.6286C104.025 62.7559 103.898 64.2047 103.019 65.194L102.2 66.1151C101.221 67.2169 101.187 68.867 102.12 70.0079L103.899 72.1823C104.58 73.0144 105.654 73.4185 106.714 73.2418L113.241 72.1539C113.739 72.071 114.25 72.1149 114.726 72.2815L123.519 75.3591C123.837 75.4706 124.172 75.5275 124.51 75.5275H129.664C130.187 75.5275 130.695 75.6642 131.141 75.9166L135.599 70.1853C136.167 69.4546 137.041 69.0271 137.967 69.0271H145.24C146.8 69.0271 148.1 67.8312 148.229 66.2763L148.822 59.1675C148.928 57.8877 149.838 56.8177 151.084 56.5062L158.007 54.7754C159.646 54.3656 160.624 52.6833 160.168 51.0561L157.796 42.5832C157.605 41.9012 157.661 41.1737 157.955 40.5293L170.229 13.6203C170.408 13.2294 170.5 12.8048 170.5 12.3752V5.694V5.11824C170.5 3.62998 169.409 2.3667 167.936 2.15016L158.812 0.808413L156.936 0.532517C155.125 0.266172 153.5 1.66994 153.5 3.50057V9.17995C153.5 10.0369 153.133 10.8529 152.493 11.4222L144.763 18.2934C144.588 18.4487 144.432 18.6238 144.298 18.8153L138.396 27.2475C137.834 28.0495 136.917 28.5271 135.938 28.5271H116.5V36.7847C116.5 37.5804 116.184 38.3435 115.621 38.9061L114.879 39.6487C114.316 40.2113 113.553 40.5274 112.757 40.5274H109.27C109.09 40.5274 108.911 40.5436 108.734 40.5758L105.194 41.2194C104.145 41.4101 103.073 41.0297 102.379 40.2202L101.398 39.075C100.828 38.4101 99.9959 38.0274 99.1201 38.0274H96.5999C96.2038 38.0274 95.8117 38.1058 95.4461 38.2582L91.2673 39.9993C90.4625 40.3346 89.5517 40.3033 88.7719 39.9133L86.6583 38.8566C85.6419 38.3484 84.9999 37.3096 84.9999 36.1733V34.0046C84.9999 33.0732 84.5673 32.1946 83.8291 31.6267L79.5504 28.3354C78.8813 27.8207 78.46 27.0479 78.3899 26.2067L77.6615 17.4669C77.5632 16.2872 76.7803 15.2755 75.663 14.8844L67.4999 12.0274L59.7652 9.75249C59.2637 9.60499 58.7324 9.5911 58.2239 9.71217L49.7207 11.7367C48.9396 11.9227 48.1166 11.7878 47.4358 11.3623L45.2295 9.98338C44.7527 9.68539 44.2018 9.52739 43.6395 9.52739H39.3309C38.7871 9.52739 38.2536 9.37962 37.7874 9.09987L35.0631 7.46532C34.1027 6.88906 32.9012 6.89582 31.9474 7.48283L28.0987 9.85124C27.3972 10.2829 26.5492 10.4072 25.7534 10.195L20.5 8.79408V12.2537C20.5 14.3806 21.1782 16.4522 22.4359 18.1673L24.064 20.3875C25.3218 22.1026 26 24.1741 26 26.3011V33.9758C26 35.962 25.389 37.9002 24.25 39.5274L23.863 40.0802C22.9758 41.3476 22.5 42.8572 22.5 44.4042C22.5 46.4039 21.7056 48.3218 20.2916 49.7358L19.2968 50.7306C17.3372 52.6902 16.8848 55.6987 18.1814 58.1479L18.4527 58.6603C19.6545 60.9304 19.1494 63.7279 17.2296 65.4344C16.427 66.1478 15.4354 66.6142 14.374 66.7775L12.068 67.1323C10.3839 67.3914 8.79405 68.0765 7.44912 69.1225L4.36059 71.5247C1.92472 73.4193 0.5 76.3323 0.5 79.4182V79.581C0.5 80.5403 0.638023 81.4946 0.909824 82.4145L6.34182 100.8C6.77485 102.265 7.53801 103.612 8.5727 104.737Z" fill="white" stroke="#A6C1E9"/>
</svg>
