<svg width="204" height="207" viewBox="0 0 204 207" fill="none" xmlns="http://www.w3.org/2000/svg">
<path d="M23.6743 25.9614L9.61883 36.503C9.5196 36.5774 9.41901 36.6492 9.31715 36.7185L8.06773 54.2104C8.02679 54.7835 8.15129 55.3563 8.42642 55.8607L13.5377 65.2313C13.8414 65.7882 13.9608 66.4269 13.8788 67.0559L12.7393 75.792C12.5952 76.8966 11.851 77.8304 10.8065 78.2172L2.45947 81.3087C0.676716 81.969 -0.0501564 84.0998 0.957424 85.7119L1.18814 86.0811C1.39734 86.4158 1.53844 86.7886 1.60333 87.1779L2.3032 91.3772C2.43255 92.1533 2.86159 92.8474 3.49788 93.3102L6.54426 95.5257C7.44295 96.1793 7.90674 97.2762 7.74958 98.3762L7.03518 103.377C7.01511 103.518 7.00503 103.659 7.00503 103.801V119.921C7.00503 120.672 6.72367 121.395 6.21649 121.948L3.33493 125.092C2.29543 126.226 2.28215 127.962 3.30416 129.112L8.38493 134.828C9.08051 135.611 10.1337 135.974 11.1638 135.787L13.4585 135.369C14.4271 135.193 15.4204 135.504 16.1165 136.2L17.1264 137.209C17.689 137.772 18.452 138.088 19.2477 138.088H20.6252C22.2157 138.088 23.505 139.377 23.505 140.968C23.505 141.688 23.7751 142.383 24.262 142.914L27.2684 146.194C28.2679 147.284 28.3236 148.94 27.3996 150.095L25.4319 152.555C25.1509 152.906 24.9525 153.316 24.8514 153.754L23.6282 159.054C23.5468 159.407 23.4021 159.743 23.2012 160.044L22.3531 161.316L22.3177 161.369L31.4416 162.711C32.914 162.928 34.0051 164.191 34.0051 165.679V166.255L37.4676 170.294C38.3283 171.299 39.8259 171.45 40.8699 170.638C42.1819 169.617 44.1068 170.153 44.7035 171.704L45.7935 174.538C45.9332 174.901 46.1423 175.234 46.409 175.517L53.1167 182.644C53.6836 183.247 54.4741 183.588 55.3013 183.588H59.156C59.7111 183.588 60.2554 183.742 60.7283 184.033L65.4903 186.964C66.1421 187.365 66.6159 188 66.8149 188.739L69.9019 200.205C69.9704 200.459 70.0051 200.722 70.0051 200.985V203.268C70.0051 204.273 70.8198 205.088 71.8249 205.088C71.9447 205.088 72.0643 205.076 72.1818 205.053L74.0335 204.682C75.6698 204.355 76.7245 202.756 76.3808 201.123L75.0959 195.02C75.0357 194.733 74.934 194.458 74.794 194.201L73.0276 190.963C72.4155 189.841 72.5816 188.454 73.4414 187.508L76.2644 184.403C76.741 183.879 77.0051 183.196 77.0051 182.487C77.0051 181.337 77.6965 180.3 78.7579 179.858L82.1083 178.462C82.6868 178.221 83.1593 177.78 83.4395 177.219C84.4415 175.215 87.3363 175.321 88.1893 177.393L88.7401 178.73C89.203 179.854 90.2985 180.588 91.5142 180.588H95.8226C96.5825 180.588 97.314 180.876 97.8695 181.395L103.938 187.059C104.31 187.406 104.764 187.653 105.257 187.776L120.329 191.544C121.619 191.867 122.968 191.301 123.642 190.155L126.635 185.067C127.174 184.151 128.158 183.588 129.221 183.588H135.694C136.808 183.588 137.83 184.205 138.349 185.191L142.191 192.491C142.398 192.884 142.69 193.227 143.045 193.493L145.305 195.188C146.061 195.755 146.505 196.644 146.505 197.588V200.338V200.374L152.942 203.133C153.649 203.435 154.387 203.656 155.144 203.789L169.459 206.315C170.481 206.496 171.527 206.484 172.545 206.28L177.149 205.359C179.258 204.938 180.597 202.853 180.105 200.761C179.543 198.374 181.354 196.088 183.805 196.088H195.474C197.967 196.088 200.268 194.753 201.505 192.588C201.891 191.913 202.381 191.318 202.948 190.819L191.279 181.311C191.097 181.163 190.933 180.994 190.791 180.808L185.405 173.766C184.838 173.024 183.957 172.588 183.022 172.588H182.656C181.915 172.588 181.2 172.314 180.649 171.818L177.638 169.108C176.926 168.467 175.951 168.205 175.013 168.402L168.992 169.67C167.792 169.922 166.559 169.419 165.878 168.398L165.253 167.461C165.089 167.214 164.962 166.943 164.876 166.659L163.877 163.33C163.64 162.537 163.085 161.878 162.346 161.508L160.163 160.417C159.147 159.909 158.505 158.87 158.505 157.734V146.258C158.505 145.506 158.222 144.781 157.713 144.227L148.624 134.348C147.677 133.318 147.567 131.77 148.36 130.617L151.431 126.15C152.087 125.196 152.135 123.95 151.555 122.948L147.594 116.105C147.215 115.451 147.097 114.679 147.264 113.942L150.036 101.664C150.317 100.42 151.353 99.4903 152.619 99.3442L160.849 98.3946C162.363 98.2199 163.505 96.9382 163.505 95.4144V88.8291C163.505 88.2399 163.678 87.6755 163.987 87.1976L161.596 85.1049C161.22 84.7765 161.005 84.302 161.005 83.8033V83.6497C161.005 82.6025 160.021 81.8342 159.005 82.0881C157.989 82.3421 157.005 81.5737 157.005 80.5266V79.7112C157.005 79.0042 156.672 78.3385 156.107 77.9143L156.005 77.8381C155.376 77.366 155.005 76.625 155.005 75.8381V70.0475C155.005 68.6175 153.996 67.3863 152.593 67.1058L152.417 67.0705C151.014 66.79 150.005 65.5588 150.005 64.1287V63.3881C150.005 62.2802 149.394 61.2625 148.417 60.7411L144.093 58.4352C143.116 57.9138 142.505 56.8961 142.505 55.7881V54.2504C142.505 52.9591 143.331 51.8127 144.556 51.4044L145.907 50.9543C146.614 50.7187 147.207 50.2284 147.573 49.579L149.106 46.8527L145.605 43.9883C144.909 43.4186 144.505 42.5663 144.505 41.6665V31.3307C144.505 30.5351 144.189 29.772 143.626 29.2094L138.715 24.2982C138.575 24.1585 138.45 24.0053 138.34 23.8409L132.009 14.3439C131.68 13.8511 131.505 13.272 131.505 12.6798V8.61578C131.505 7.65597 131.046 6.7541 130.27 6.18957L126.686 3.58351C126.244 3.26212 125.92 2.8047 125.763 2.28134C125.207 0.428834 122.847 -0.116188 121.536 1.30497L119.396 3.62294C118.828 4.23818 118.029 4.5881 117.192 4.5881H114.505C112.848 4.5881 111.505 5.93125 111.505 7.5881V11.8906C111.505 12.9204 110.891 13.8511 109.945 14.2568C108.817 14.7402 107.505 14.3602 106.809 13.349L102.797 7.5121C102.604 7.23148 102.364 6.98576 102.089 6.78547L98.1381 3.9121C97.42 3.38984 96.5074 3.21252 95.6459 3.42788L86.3437 5.75344C85.4941 5.96585 84.7797 6.53891 84.388 7.32223L83.0998 9.89868C82.4651 11.1682 81.0161 11.8056 79.6514 11.4156C78.9161 11.2055 78.1279 11.2893 77.4531 11.6491L72.9725 14.0388C71.8422 14.6416 71.3242 15.9816 71.755 17.188C72.4734 19.1994 70.58 21.1644 68.5433 20.5212L64.0051 19.0881L56.4195 17.3032C55.8241 17.1632 55.2858 16.8445 54.8767 16.3899L51.7615 12.9285C51.2739 12.3868 50.6059 12.0411 49.8821 11.956L44.6145 11.3363C44.0224 13.5079 42.7028 15.4618 40.8024 16.8277L31.8009 23.2975C30.6333 24.1368 29.2316 24.5882 27.7937 24.5882C26.3082 24.5882 24.8627 25.07 23.6743 25.9614Z" fill="white" stroke="#A6C1E9"/>
</svg>
