<svg width="140" height="140" viewBox="0 0 140 140" fill="none" xmlns="http://www.w3.org/2000/svg">
<rect width="140" height="140" fill="#ECECEC"/>
<mask id="mask0_436_903" style="mask-type:alpha" maskUnits="userSpaceOnUse" x="31" y="31" width="78" height="78">
<rect x="31" y="31" width="78" height="78" fill="#D9D9D9"/>
</mask>
<g mask="url(#mask0_436_903)">
<path d="M48.2502 97.625C46.6084 97.625 45.2188 97.0563 44.0813 95.9188C42.9438 94.7812 42.375 93.3916 42.375 91.7498V48.2502C42.375 46.6084 42.9438 45.2188 44.0813 44.0813C45.2188 42.9438 46.6084 42.375 48.2502 42.375H91.7498C93.3916 42.375 94.7812 42.9438 95.9188 44.0813C97.0563 45.2188 97.625 46.6084 97.625 48.2502V91.7498C97.625 93.3916 97.0563 94.7812 95.9188 95.9188C94.7812 97.0563 93.3916 97.625 91.7498 97.625H48.2502ZM48.2502 92.75H91.7498C92.0001 92.75 92.2292 92.6457 92.4372 92.4372C92.6457 92.2292 92.75 92.0001 92.75 91.7498V48.2502C92.75 47.9999 92.6457 47.7708 92.4372 47.5628C92.2292 47.3543 92.0001 47.25 91.7498 47.25H48.2502C47.9999 47.25 47.7708 47.3543 47.5628 47.5628C47.3543 47.7708 47.25 47.9999 47.25 48.2502V91.7498C47.25 92.0001 47.3543 92.2292 47.5628 92.4372C47.7708 92.6457 47.9999 92.75 48.2502 92.75ZM52.9375 85.4375H87.3119L76.6251 71.1879L67.4999 83.0626L60.9999 74.7499L52.9375 85.4375Z" fill="#C6C6C6"/>
</g>
</svg>
