<svg width="122" height="109" viewBox="0 0 122 109" fill="none" xmlns="http://www.w3.org/2000/svg">
<g filter="url(#filter0_d_179_61)">
<path d="M49.5806 11.4567L48.3595 8.14228C48.0095 7.19221 47.4513 6.3559 46.7448 5.68115L32.9456 18.0529C32.6514 18.3166 32.4122 18.6358 32.2418 18.9922L21.7936 40.8385C21.6003 41.2426 21.5 41.6849 21.5 42.1329V50.1442C21.5 50.9784 21.1527 51.7749 20.5414 52.3425L14.8435 57.6334C14.6159 57.8448 14.4225 58.0902 14.2702 58.361L12.1012 62.2169L10.5676 64.9432C10.2023 65.5927 9.60844 66.0829 8.90158 66.3185L7.55133 66.7686C6.3263 67.1769 5.5 68.3234 5.5 69.6147V71.1524C5.5 72.2603 6.11064 73.2781 7.08823 73.7994L11.4118 76.1053C12.3894 76.6267 13 77.6444 13 78.7524V79.493C13 80.923 14.0094 82.1542 15.4117 82.4347L15.5883 82.47C16.9906 82.7505 18 83.9817 18 85.4118V91.2024C18 91.9893 18.3705 92.7302 19 93.2024L19.1015 93.2785C19.6671 93.7027 20 94.3685 20 95.0755V95.8908C20 96.938 20.9841 97.7063 22 97.4524C23.0159 97.1984 24 97.9668 24 99.0139V99.1675C24 99.6663 24.2153 100.141 24.5906 100.469L26.9823 102.562C27.2384 102.167 27.5882 101.83 28.0114 101.589L28.4883 101.316C29.423 100.782 29.9998 99.788 29.9998 98.7114V93.0621C29.9998 92.346 30.256 91.6535 30.7221 91.1098L31.3065 90.4279C32.2781 89.2943 33.9354 89.0477 35.1949 89.8493L38.0891 91.691C38.3611 91.8641 38.6593 91.9922 38.9721 92.0704L43.0562 93.0915C43.9657 93.3189 44.7167 93.9584 45.086 94.8201L46.7866 98.7881C47.2252 99.8116 48.1947 100.508 49.3048 100.597L70.6197 102.302C71.769 102.394 72.8693 101.819 73.4502 100.823L75.4451 97.4033C75.8033 96.7894 76.3677 96.3225 77.038 96.086L84.4998 93.4524L87.4338 92.1949C87.8073 92.0349 88.2093 91.9524 88.6156 91.9524H90.2498C91.2163 91.9524 91.9998 91.1689 91.9998 90.2024C91.9998 89.2359 92.7833 88.4524 93.7498 88.4524H95.4379C96.4168 88.4524 97.3342 88.93 97.8956 89.732L99.6041 92.1728C100.165 92.9747 101.083 93.4524 102.062 93.4524H102.667C104.231 93.4524 105.5 94.7208 105.5 96.2854C105.5 97.3143 106.058 98.2622 106.957 98.7619L109.048 99.9235C109.119 99.3886 109.271 98.8661 109.498 98.3737L115.226 85.9622C116.84 82.4654 115.768 78.3157 112.663 76.0382C111.258 75.0085 110.224 73.5537 109.711 71.8894L106.998 63.0711C106.668 61.9996 106.161 60.9912 105.497 60.0881L96.4868 47.8344C94.8962 45.6712 92.5026 44.2385 89.8445 43.8588L89.6552 43.8317C87.9159 43.5833 86.2727 42.8809 84.8912 41.7954L66.0001 26.9524L52.5379 15.6616C51.2026 14.5416 50.1831 13.0921 49.5806 11.4567Z" fill="#6F99D5"/>
<path d="M49.5806 11.4567L48.3595 8.14228C48.0095 7.19221 47.4513 6.3559 46.7448 5.68115L32.9456 18.0529C32.6514 18.3166 32.4122 18.6358 32.2418 18.9922L21.7936 40.8385C21.6003 41.2426 21.5 41.6849 21.5 42.1329V50.1442C21.5 50.9784 21.1527 51.7749 20.5414 52.3425L14.8435 57.6334C14.6159 57.8448 14.4225 58.0902 14.2702 58.361L12.1012 62.2169L10.5676 64.9432C10.2023 65.5927 9.60844 66.0829 8.90158 66.3185L7.55133 66.7686C6.3263 67.1769 5.5 68.3234 5.5 69.6147V71.1524C5.5 72.2603 6.11064 73.2781 7.08823 73.7994L11.4118 76.1053C12.3894 76.6267 13 77.6444 13 78.7524V79.493C13 80.923 14.0094 82.1542 15.4117 82.4347L15.5883 82.47C16.9906 82.7505 18 83.9817 18 85.4118V91.2024C18 91.9893 18.3705 92.7302 19 93.2024L19.1015 93.2785C19.6671 93.7027 20 94.3685 20 95.0755V95.8908C20 96.938 20.9841 97.7063 22 97.4524C23.0159 97.1984 24 97.9668 24 99.0139V99.1675C24 99.6663 24.2153 100.141 24.5906 100.469L26.9823 102.562C27.2384 102.167 27.5882 101.83 28.0114 101.589L28.4883 101.316C29.423 100.782 29.9998 99.788 29.9998 98.7114V93.0621C29.9998 92.346 30.256 91.6535 30.7221 91.1098L31.3065 90.4279C32.2781 89.2943 33.9354 89.0477 35.1949 89.8493L38.0891 91.691C38.3611 91.8641 38.6593 91.9922 38.9721 92.0704L43.0562 93.0915C43.9657 93.3189 44.7167 93.9584 45.086 94.8201L46.7866 98.7881C47.2252 99.8116 48.1947 100.508 49.3048 100.597L70.6197 102.302C71.769 102.394 72.8693 101.819 73.4502 100.823L75.4451 97.4033C75.8033 96.7894 76.3677 96.3225 77.038 96.086L84.4998 93.4524L87.4338 92.1949C87.8073 92.0349 88.2093 91.9524 88.6156 91.9524H90.2498C91.2163 91.9524 91.9998 91.1689 91.9998 90.2024C91.9998 89.2359 92.7833 88.4524 93.7498 88.4524H95.4379C96.4168 88.4524 97.3342 88.93 97.8956 89.732L99.6041 92.1728C100.165 92.9747 101.083 93.4524 102.062 93.4524H102.667C104.231 93.4524 105.5 94.7208 105.5 96.2854C105.5 97.3143 106.058 98.2622 106.957 98.7619L109.048 99.9235C109.119 99.3886 109.271 98.8661 109.498 98.3737L115.226 85.9622C116.84 82.4654 115.768 78.3157 112.663 76.0382C111.258 75.0085 110.224 73.5537 109.711 71.8894L106.998 63.0711C106.668 61.9996 106.161 60.9912 105.497 60.0881L96.4868 47.8344C94.8962 45.6712 92.5026 44.2385 89.8445 43.8588L89.6552 43.8317C87.9159 43.5833 86.2727 42.8809 84.8912 41.7954L66.0001 26.9524L52.5379 15.6616C51.2026 14.5416 50.1831 13.0921 49.5806 11.4567Z" stroke="#6F99D5"/>
</g>
<defs>
<filter id="filter0_d_179_61" x="0" y="0" width="121.472" height="108.319" filterUnits="userSpaceOnUse" color-interpolation-filters="sRGB">
<feFlood flood-opacity="0" result="BackgroundImageFix"/>
<feColorMatrix in="SourceAlpha" type="matrix" values="0 0 0 0 0 0 0 0 0 0 0 0 0 0 0 0 0 0 127 0" result="hardAlpha"/>
<feOffset/>
<feGaussianBlur stdDeviation="2.5"/>
<feComposite in2="hardAlpha" operator="out"/>
<feColorMatrix type="matrix" values="0 0 0 0 0 0 0 0 0 0 0 0 0 0 0 0 0 0 0.25 0"/>
<feBlend mode="normal" in2="BackgroundImageFix" result="effect1_dropShadow_179_61"/>
<feBlend mode="normal" in="SourceGraphic" in2="effect1_dropShadow_179_61" result="shape"/>
</filter>
</defs>
</svg>
