<svg width="107" height="92" viewBox="0 0 107 92" fill="none" xmlns="http://www.w3.org/2000/svg">
<path d="M1.65523 47.021L3.73776 49.6589C4.88256 51.109 4.84106 53.1665 3.63871 54.5693C3.03826 55.2698 2.70821 56.162 2.70821 57.0846V58.4215L7.96159 59.8224C8.75739 60.0346 9.60544 59.9103 10.3069 59.4787L14.1556 57.1103C15.1095 56.5233 16.3109 56.5165 17.2713 57.0928L19.9956 58.7273C20.4619 59.0071 20.9954 59.1548 21.5391 59.1548H25.8477C26.41 59.1548 26.9609 59.3128 27.4377 59.6108L29.644 60.9898C30.3249 61.4153 31.1478 61.5501 31.9289 61.3642L40.4321 59.3396C40.9406 59.2185 41.472 59.2324 41.9735 59.3799L49.7081 61.6548L57.8712 64.5119C58.9885 64.903 59.7714 65.9146 59.8698 67.0944L60.5981 75.8341C60.6682 76.6754 61.0895 77.4482 61.7586 77.9629L66.0373 81.2542C66.7755 81.8221 67.2081 82.7006 67.2081 83.632V85.8007C67.2081 86.9371 67.8501 87.9759 68.8665 88.484L70.9801 89.5408C71.7599 89.9307 72.6708 89.9621 73.4755 89.6268L77.6543 87.8856C78.0199 87.7333 78.4121 87.6548 78.8081 87.6548H81.3283C82.2041 87.6548 83.0362 88.0375 83.6061 88.7025L84.5877 89.8476C85.2816 90.6572 86.353 91.0376 87.4021 90.8469L90.942 90.2032C91.1191 90.171 91.2987 90.1548 91.4786 90.1548H94.9655C95.7612 90.1548 96.5242 89.8388 97.0868 89.2762L97.8295 88.5335C98.3921 87.9709 98.7081 87.2078 98.7081 86.4122V78.1546V68.6548C98.7081 68.0057 98.9187 67.3741 99.3081 66.8549L102.608 62.4548C102.998 61.9355 103.208 61.3039 103.208 60.6548V57.1842C103.208 56.517 103.431 55.8689 103.84 55.3423L105.722 52.9222C106.338 52.1304 106.518 51.0833 106.2 50.1317L105.172 47.0468C104.879 46.1685 105.009 45.2043 105.522 44.434L105.669 44.213C106.305 43.2595 106.342 42.0271 105.765 41.0373L86.4555 7.93609C85.9845 7.12858 85.1639 6.5868 84.2363 6.47085L70.1558 4.71078C69.859 4.67369 69.5695 4.59244 69.2968 4.46972L61.0623 0.764245C60.209 0.380222 59.2252 0.416404 58.4024 0.862115L49.4719 5.69946C48.4044 6.27771 47.0936 6.15551 46.1513 5.38992L41.5261 1.63189C40.4577 0.763815 38.9356 0.734273 37.8343 1.56024L34.3631 4.1636C33.9343 4.48521 33.4272 4.68607 32.8944 4.74526L26.1641 5.49307C25.2453 5.59515 24.4249 6.11513 23.9404 6.90243L22.3386 9.50527C21.4479 10.9528 19.5337 11.3719 18.1196 10.4291L16.6571 9.45413C15.5117 8.69052 13.9936 8.80446 12.975 9.73046L9.90122 12.5248C9.44991 12.9351 8.88426 13.198 8.27969 13.2786L4.17999 13.8253L4.42497 15.6013C4.59428 16.8288 3.96241 18.0277 2.85408 18.5819C1.60985 19.204 0.985146 20.6241 1.36731 21.9617L4.6814 33.561C5.29853 35.7209 4.50564 38.0367 2.69415 39.3651C0.242852 41.1628 -0.228362 44.6352 1.65523 47.021Z" fill="white"/>
<path d="M1.70814 58.1548L2.70821 58.4215M2.70821 58.4215L7.96159 59.8224C8.75739 60.0346 9.60544 59.9103 10.3069 59.4787L14.1556 57.1103C15.1095 56.5233 16.3109 56.5165 17.2713 57.0928L19.9956 58.7273C20.4619 59.0071 20.9954 59.1548 21.5391 59.1548H25.8477C26.41 59.1548 26.9609 59.3128 27.4377 59.6108L29.644 60.9898C30.3249 61.4153 31.1478 61.5501 31.9289 61.3642L40.4321 59.3396C40.9406 59.2185 41.472 59.2324 41.9735 59.3799L49.7081 61.6548L57.8712 64.5119C58.9885 64.903 59.7714 65.9146 59.8698 67.0944L60.5981 75.8341C60.6682 76.6754 61.0895 77.4482 61.7586 77.9629L66.0373 81.2542C66.7755 81.8221 67.2081 82.7006 67.2081 83.632V85.8007C67.2081 86.9371 67.8501 87.9759 68.8665 88.484L70.9801 89.5408C71.7599 89.9307 72.6708 89.9621 73.4755 89.6268L77.6543 87.8856C78.0199 87.7333 78.4121 87.6548 78.8081 87.6548H81.3283C82.2041 87.6548 83.0362 88.0375 83.6061 88.7025L84.5877 89.8476C85.2816 90.6572 86.353 91.0376 87.4021 90.8469L90.942 90.2032C91.1191 90.171 91.2987 90.1548 91.4786 90.1548H94.9655C95.7612 90.1548 96.5242 89.8388 97.0868 89.2762L97.8295 88.5335C98.3921 87.9709 98.7081 87.2078 98.7081 86.4122V78.1546V68.6548C98.7081 68.0057 98.9187 67.3741 99.3081 66.8549L102.608 62.4548C102.998 61.9355 103.208 61.3039 103.208 60.6548V57.1842C103.208 56.517 103.431 55.8689 103.84 55.3423L105.722 52.9222C106.338 52.1304 106.518 51.0833 106.2 50.1317L105.172 47.0468C104.879 46.1685 105.009 45.2043 105.522 44.434L105.669 44.213C106.305 43.2595 106.342 42.0271 105.765 41.0373L86.4555 7.93609C85.9845 7.12858 85.1639 6.5868 84.2363 6.47085L70.1558 4.71078C69.859 4.67369 69.5695 4.59244 69.2968 4.46972L61.0623 0.764245C60.209 0.380222 59.2252 0.416404 58.4024 0.862115L49.4719 5.69946C48.4044 6.27771 47.0936 6.15551 46.1513 5.38992L41.5261 1.63189C40.4577 0.763815 38.9356 0.734273 37.8343 1.56024L34.3631 4.1636C33.9343 4.48521 33.4272 4.68607 32.8944 4.74526L26.1641 5.49307C25.2453 5.59515 24.4249 6.11513 23.9404 6.90243L22.3386 9.50527C21.4479 10.9528 19.5337 11.3719 18.1196 10.4291L16.6571 9.45413C15.5117 8.69052 13.9936 8.80446 12.975 9.73046L9.90122 12.5248C9.44991 12.9351 8.88426 13.198 8.27969 13.2786L4.17999 13.8253L4.42497 15.6013C4.59428 16.8288 3.96241 18.0277 2.85408 18.5819C1.60985 19.204 0.985146 20.6241 1.36731 21.9617L4.6814 33.561C5.29853 35.7209 4.50564 38.0367 2.69415 39.3651C0.242852 41.1628 -0.228362 44.6352 1.65523 47.021L3.73776 49.6589C4.88256 51.109 4.84106 53.1665 3.63871 54.5693C3.03826 55.2698 2.70821 56.162 2.70821 57.0846V58.4215Z" stroke="#A6C1E9"/>
</svg>
