<svg width="145" height="159" viewBox="0 0 145 159" fill="none" xmlns="http://www.w3.org/2000/svg">
<path d="M6.24894 71.4819L1.74424 79.6467C0.702748 81.5344 0.299221 83.7081 0.5938 85.8439L1.61184 93.2247L5.71154 92.6781C6.31611 92.5975 6.88176 92.3345 7.33307 91.9242L10.4068 89.1299C11.4254 88.2039 12.9435 88.09 14.0889 88.8536L15.5514 89.8286C16.9656 90.7713 18.8797 90.3522 19.7705 88.9047L21.3722 86.3019C21.8567 85.5146 22.6771 84.9946 23.5959 84.8925L30.3263 84.1447C30.859 84.0855 31.3662 83.8846 31.795 83.563L35.2661 80.9597C36.3674 80.1337 37.8895 80.1633 38.9579 81.0313L43.5832 84.7894C44.5254 85.5549 45.8363 85.6771 46.9038 85.0989L55.8342 80.2616C56.6571 79.8158 57.6408 79.7797 58.4942 80.1637L66.7286 83.8692C67.0013 83.9919 67.2909 84.0731 67.5876 84.1102L81.6682 85.8703C82.5958 85.9862 83.4163 86.528 83.8874 87.3355L103.196 120.437C103.774 121.427 103.737 122.659 103.101 123.612L102.954 123.833C102.44 124.604 102.311 125.568 102.604 126.446L103.632 129.531C103.949 130.483 103.77 131.53 103.154 132.322L101.272 134.742C100.862 135.268 100.64 135.916 100.64 136.584V140.054C100.64 140.703 100.429 141.335 100.04 141.854L96.74 146.254C96.3505 146.774 96.14 147.405 96.14 148.054V157.554H115.578C116.557 157.554 117.474 157.076 118.036 156.274L123.938 147.842C124.072 147.651 124.228 147.476 124.403 147.32L132.133 140.449C132.774 139.88 133.14 139.064 133.14 138.207V132.527C133.14 130.697 134.765 129.293 136.576 129.559L138.429 129.832L138.488 129.782L139.336 128.51C139.537 128.209 139.682 127.873 139.763 127.52L140.986 122.22C141.087 121.782 141.286 121.372 141.567 121.021L143.535 118.561C144.458 117.406 144.403 115.75 143.403 114.66L140.397 111.38C139.91 110.849 139.64 110.155 139.64 109.434C139.64 107.844 138.351 106.554 136.76 106.554H135.383C134.587 106.554 133.824 106.238 133.261 105.676L132.251 104.666C131.555 103.97 130.562 103.659 129.593 103.835L127.299 104.253C126.269 104.44 125.215 104.077 124.52 103.294L119.439 97.5782C118.417 96.4285 118.43 94.692 119.47 93.558L122.351 90.4144C122.859 89.8612 123.14 89.1378 123.14 88.3873V72.2674C123.14 72.1255 123.15 71.9837 123.17 71.8432L123.884 66.8423C124.042 65.7422 123.578 64.6454 122.679 63.9918L119.633 61.7763C118.996 61.3135 118.567 60.6193 118.438 59.8433L117.738 55.644C117.673 55.2546 117.532 54.8819 117.323 54.5472L117.092 54.178C116.085 52.5659 116.812 50.4351 118.594 49.7748L126.941 46.6833C127.986 46.2965 128.73 45.3627 128.874 44.2581L130.014 35.522C130.096 34.893 129.976 34.2542 129.673 33.6974L124.561 24.3268C124.286 23.8224 124.162 23.2496 124.203 22.6765L125.452 5.18457C122.983 6.86333 119.769 7.02501 117.134 5.57622C113.911 3.80327 109.893 4.4682 107.412 7.18506L107.262 7.34982C103.985 10.938 98.3263 10.9095 95.0864 7.28848L93.9707 6.04152C93.124 5.09517 91.9143 4.55429 90.6444 4.55429C89.3695 4.55429 88.1554 4.00909 87.3084 3.05621L87.0665 2.78407C85.6068 1.14187 83.2819 0.576658 81.2312 1.3654L80.4611 1.66157C78.9671 2.2362 77.313 2.2362 75.819 1.66157L74.5319 1.16655C72.6482 0.442029 70.5893 0.304471 68.6259 0.77194L63.5357 1.9839C62.0577 2.33581 60.8876 3.46312 60.481 4.92705C59.6426 7.94528 55.9018 8.99855 53.6117 6.86119L53.0305 6.31871C51.8548 5.22137 50.196 4.80845 48.6431 5.22656L43.895 6.50488C41.1989 7.23074 40.1539 10.4996 41.9288 12.6549L42.4445 13.2811C43.7996 14.9266 43.2132 17.4107 41.2652 18.2764C40.853 18.4596 40.407 18.5543 39.9559 18.5543H36.8874C34.4653 18.5543 32.6786 20.8163 33.2396 23.1725L33.32 23.51C33.9275 26.0614 31.6423 28.3625 29.0868 27.7727C28.4671 27.6297 27.8204 27.6566 27.2147 27.8504L15.6401 31.5543L14.1122 31.8598C10.924 32.4975 8.99499 35.7615 9.97406 38.8619L10.3793 40.1452C10.835 41.5884 10.3297 43.162 9.11898 44.0701C7.92894 44.9626 7.41831 46.5003 7.83804 47.9274L8.57085 50.419C9.22567 52.6453 8.56091 55.0504 6.85568 56.6245C4.70051 58.6138 4.26558 61.8551 5.82007 64.3423L6.06526 64.7346C7.34604 66.7838 7.41633 69.366 6.24894 71.4819Z" fill="white" stroke="#A6C1E9"/>
</svg>
