<svg width="56" height="45" viewBox="0 0 56 45" fill="none" xmlns="http://www.w3.org/2000/svg">
<path d="M10.1037 33.6506L2.34733 30.4188C0.590926 29.687 -0.0492008 27.5259 1.02526 25.9555L15.3798 4.97579L17.5487 1.80594C18.1078 0.988668 19.0343 0.5 20.0246 0.5H50.9422C52.599 0.5 53.9422 1.84315 53.9422 3.5V10.1877C53.9422 10.7135 53.7632 11.2237 53.4347 11.6343C52.6181 12.6551 52.8078 14.1492 53.8536 14.9335L53.9083 14.9745C55.0095 15.8005 55.1835 17.3852 54.2876 18.4304L44.2872 30.0974C44.059 30.3637 43.8792 30.668 43.756 30.9965L41.3098 37.5196C41.0718 38.1544 40.6257 38.6899 40.0444 39.0387L35.9422 41.5L31.975 43.2914L31.6514 43.4375C31.4087 43.5471 31.1551 43.6228 30.8973 43.6646C30.3146 43.7591 29.7106 43.6805 29.1636 43.429L19.0388 38.7742C18.6457 38.5935 18.2182 38.5 17.7856 38.5H15.5477C14.5447 38.5 13.608 37.9987 13.0516 37.1641L11.446 34.7558C11.1175 34.263 10.6505 33.8784 10.1037 33.6506Z" fill="white"/>
<path d="M15.4421 5.00015L15.3798 4.97579M15.3798 4.97579L17.5487 1.80594C18.1078 0.988668 19.0343 0.5 20.0246 0.5H50.9422C52.599 0.5 53.9422 1.84315 53.9422 3.5V10.1877C53.9422 10.7135 53.7632 11.2237 53.4347 11.6343C52.6181 12.6551 52.8078 14.1492 53.8536 14.9335L53.9083 14.9745C55.0095 15.8005 55.1835 17.3852 54.2876 18.4304L44.2872 30.0974C44.059 30.3637 43.8792 30.668 43.756 30.9965L41.3098 37.5196C41.0718 38.1544 40.6257 38.6899 40.0444 39.0387L35.9422 41.5L31.975 43.2914L31.6514 43.4375C31.4087 43.5471 31.1551 43.6228 30.8973 43.6646C30.3146 43.7591 29.7106 43.6805 29.1636 43.429L19.0388 38.7742C18.6457 38.5935 18.2182 38.5 17.7856 38.5H15.5477C14.5447 38.5 13.608 37.9987 13.0516 37.1641L11.446 34.7558C11.1175 34.263 10.6505 33.8784 10.1037 33.6506L2.34733 30.4188C0.590926 29.687 -0.0492008 27.5259 1.02526 25.9555L15.3798 4.97579Z" stroke="#A6C1E9"/>
</svg>
