<svg width="154" height="89" viewBox="0 0 154 89" fill="none" xmlns="http://www.w3.org/2000/svg">
<path d="M139.746 39.1879L141.321 37.6129C144.213 34.7215 148.573 33.8817 152.332 35.4925L152.609 35.6112V35.5754V32.8254C152.609 31.8812 152.164 30.992 151.409 30.4254L149.149 28.7306C148.793 28.4638 148.501 28.1213 148.294 27.7278L144.452 20.4282C143.933 19.4425 142.911 18.8254 141.797 18.8254H135.324C134.261 18.8254 133.278 19.3881 132.739 20.3044L129.746 25.392C129.072 26.5385 127.723 27.104 126.432 26.7814L111.361 23.0135C110.868 22.8902 110.414 22.6433 110.042 22.2963L103.973 16.6323C103.418 16.1138 102.686 15.8254 101.926 15.8254H97.6177C96.402 15.8254 95.3065 15.0918 94.8437 13.9677L94.2929 12.6301C93.4398 10.5583 90.545 10.4526 89.5431 12.4565C89.2628 13.017 88.7903 13.458 88.2119 13.6991L84.8614 15.0951C83.8 15.5374 83.1086 16.5744 83.1086 17.7243C83.1086 18.4328 82.8445 19.1159 82.3679 19.6402L79.545 22.7455C78.6852 23.6912 78.519 25.0779 79.1311 26.2L80.8975 29.4384C81.0375 29.695 81.1392 29.9708 81.1994 30.2569L82.4843 36.36C82.8281 37.9929 81.7733 39.5925 80.137 39.9198L78.2853 40.2901C78.1678 40.3136 78.0482 40.3254 77.9284 40.3254C76.9233 40.3254 76.1086 39.5107 76.1086 38.5056V36.2222C76.1086 35.9589 76.0739 35.6966 76.0055 35.4423L72.9184 23.976C72.7194 23.237 72.2456 22.602 71.5938 22.201L66.8318 19.2705C66.359 18.9795 65.8147 18.8254 65.2595 18.8254H61.4048C60.5776 18.8254 59.7871 18.4839 59.2202 17.8815L52.5125 10.7546C52.2458 10.4712 52.0368 10.1386 51.8971 9.77542L50.807 6.94135C50.2103 5.38997 48.2854 4.85456 46.9734 5.87503C45.9295 6.68699 44.4318 6.53589 43.5711 5.53174L40.1086 1.49211V8.17334C40.1086 8.60293 40.0163 9.02752 39.8381 9.41837L27.5637 36.3275C27.2698 36.9718 27.2134 37.6994 27.4043 38.3813L29.7767 46.8542C30.2323 48.4814 29.2548 50.1637 27.6154 50.5735L20.6923 52.3043C19.4464 52.6158 18.5369 53.6858 18.4302 54.9656L17.8379 62.0744C17.7083 63.6293 16.4085 64.8253 14.8482 64.8253H7.57586C6.65009 64.8253 5.77617 65.2527 5.2078 65.9834L0.750122 71.7147C1.02898 71.8725 1.28356 72.0756 1.5024 72.3187L4.21481 75.3325C4.78373 75.9647 5.59424 76.3256 6.4447 76.3256H17.1227C17.7631 76.3256 18.3867 76.5306 18.9023 76.9105L27.2566 83.0663C27.49 83.2383 27.7472 83.3755 28.02 83.4738L39.1518 87.4812C39.7724 87.7046 40.4492 87.7173 41.0776 87.5173L50.3114 84.5793C50.8329 84.4133 51.2991 84.1079 51.6595 83.696L57.2411 77.3171C57.7939 76.6852 58.5863 76.314 59.4257 76.2935L78.0467 75.8393C78.4181 75.8303 78.7845 75.7523 79.1274 75.6095L84.0548 73.5564C84.4204 73.4041 84.8125 73.3256 85.2086 73.3256H89.133C89.7671 73.3256 90.3848 73.1247 90.8976 72.7518L100.184 65.9984C100.779 65.5651 101.514 65.3662 102.247 65.4395L108.701 66.0849C108.846 66.0071 108.993 65.9328 109.142 65.8622L121.659 59.9332C124.376 58.6461 126.109 55.9086 126.109 52.9019C126.109 50.3489 127.361 47.9583 129.46 46.5052L138.367 40.3387C138.861 39.9973 139.322 39.6121 139.746 39.1879Z" fill="white"/>
<path d="M39.1086 0.325439L40.1086 1.49211M40.1086 1.49211V8.17334C40.1086 8.60293 40.0163 9.02752 39.8381 9.41837L27.5637 36.3275C27.2698 36.9718 27.2134 37.6994 27.4043 38.3813L29.7767 46.8542C30.2323 48.4814 29.2548 50.1637 27.6154 50.5735L20.6923 52.3043C19.4464 52.6158 18.5369 53.6858 18.4302 54.9656L17.8379 62.0744C17.7083 63.6293 16.4085 64.8253 14.8482 64.8253H7.57586C6.65009 64.8253 5.77617 65.2527 5.2078 65.9834L0.750122 71.7147C1.02898 71.8725 1.28356 72.0756 1.5024 72.3187L4.21481 75.3325C4.78373 75.9647 5.59424 76.3256 6.4447 76.3256H17.1227C17.7631 76.3256 18.3867 76.5306 18.9023 76.9105L27.2566 83.0663C27.49 83.2383 27.7472 83.3755 28.02 83.4738L39.1518 87.4812C39.7724 87.7046 40.4492 87.7173 41.0776 87.5173L50.3114 84.5793C50.8329 84.4133 51.2991 84.1079 51.6595 83.696L57.2411 77.3171C57.7939 76.6852 58.5863 76.314 59.4257 76.2935L78.0467 75.8393C78.4181 75.8303 78.7845 75.7523 79.1274 75.6095L84.0548 73.5564C84.4204 73.4041 84.8125 73.3256 85.2086 73.3256H89.133C89.7671 73.3256 90.3848 73.1247 90.8976 72.7518L100.184 65.9984C100.779 65.5651 101.514 65.3662 102.247 65.4395L108.701 66.0849C108.846 66.0071 108.993 65.9328 109.142 65.8622L121.659 59.9332C124.376 58.6461 126.109 55.9086 126.109 52.9019C126.109 50.3489 127.361 47.9583 129.46 46.5052L138.367 40.3387C138.861 39.9973 139.322 39.6121 139.746 39.1879L141.321 37.6129C144.213 34.7215 148.573 33.8817 152.332 35.4925L152.609 35.6112V35.5754V32.8254C152.609 31.8812 152.164 30.992 151.409 30.4254L149.149 28.7306C148.793 28.4638 148.501 28.1213 148.294 27.7278L144.452 20.4282C143.933 19.4425 142.911 18.8254 141.797 18.8254H135.324C134.261 18.8254 133.278 19.3881 132.739 20.3044L129.746 25.392C129.072 26.5385 127.723 27.104 126.432 26.7814L111.361 23.0135C110.868 22.8902 110.414 22.6433 110.042 22.2963L103.973 16.6323C103.418 16.1138 102.686 15.8254 101.926 15.8254H97.6177C96.402 15.8254 95.3065 15.0918 94.8437 13.9677L94.2929 12.6301C93.4398 10.5583 90.545 10.4526 89.5431 12.4565C89.2628 13.017 88.7903 13.458 88.2119 13.6991L84.8614 15.0951C83.8 15.5374 83.1086 16.5744 83.1086 17.7243C83.1086 18.4328 82.8445 19.1159 82.3679 19.6402L79.545 22.7455C78.6852 23.6912 78.519 25.0779 79.1311 26.2L80.8975 29.4384C81.0375 29.695 81.1392 29.9708 81.1994 30.2569L82.4843 36.36C82.8281 37.9929 81.7733 39.5925 80.137 39.9198L78.2853 40.2901C78.1678 40.3136 78.0482 40.3254 77.9284 40.3254C76.9233 40.3254 76.1086 39.5107 76.1086 38.5056V36.2222C76.1086 35.9589 76.0739 35.6966 76.0055 35.4423L72.9184 23.976C72.7194 23.237 72.2456 22.602 71.5938 22.201L66.8318 19.2705C66.359 18.9795 65.8147 18.8254 65.2595 18.8254H61.4048C60.5776 18.8254 59.7871 18.4839 59.2202 17.8815L52.5125 10.7546C52.2458 10.4712 52.0368 10.1386 51.8971 9.77542L50.807 6.94135C50.2103 5.38997 48.2854 4.85456 46.9734 5.87503C45.9295 6.68699 44.4318 6.53589 43.5711 5.53174L40.1086 1.49211Z" stroke="#A6C1E9"/>
</svg>
