<svg width="155" height="73" viewBox="0 0 155 73" fill="none" xmlns="http://www.w3.org/2000/svg">
<path d="M150.075 16.6441L143.988 24.0843C143.04 25.243 142.621 26.7459 142.832 28.2279L143.03 29.6096C143.298 31.4907 142.124 33.2776 140.291 33.7776C138.891 34.1594 137.835 35.3111 137.575 36.7387L137.498 37.1627C137.193 38.8388 135.959 40.1939 134.319 40.6532L127.709 42.5038C125.666 43.0761 123.959 44.485 123.01 46.3833L121.039 50.324C120.487 51.4281 120.466 52.6283 120.849 53.6718L111.326 52.6515C109.959 52.505 108.667 53.3069 108.191 54.5973L105.746 61.2345C105.584 61.6736 105.527 62.1445 105.58 62.6094L106.463 70.4023L106.467 70.4579C106.489 70.6029 106.5 70.7513 106.5 70.9024L106.467 70.4579C106.253 69.0118 105.006 67.9024 103.5 67.9024H72.5825C71.5923 67.9024 70.6658 68.391 70.1066 69.2083L67.9378 72.3781L57.0844 68.1312C56.699 67.9804 56.3489 67.7514 56.0563 67.4588L54.4085 65.811C54.1387 65.5412 53.9228 65.2223 53.7724 64.8715L53.2793 63.7207C52.8065 62.6177 51.7219 61.9025 50.5218 61.9025H48.079C46.8285 61.9025 45.7091 61.1268 45.27 59.9559L43.8253 56.1032C43.3406 54.8108 42.0366 54.0159 40.6658 54.1771L29.0674 55.5416C27.388 55.7392 25.8772 54.5104 25.7285 52.8259L24.6689 40.8173C24.566 39.6503 25.1518 38.5301 26.1689 37.9488L29.9884 35.7663C30.9231 35.2321 31.5 34.2381 31.5 33.1615V29.4143C31.5 27.9608 30.4582 26.7165 29.0274 26.461L18.4276 24.5682C17.8238 24.4603 17.2675 24.17 16.8337 23.7362L8.11148 15.014C7.41538 14.3179 6.42205 14.0076 5.45349 14.1837L1.76614 14.8541C1.58907 14.8863 1.40946 14.9025 1.22949 14.9025H0.5V9.78849C0.5 9.21021 0.667139 8.64424 0.981293 8.15873L5.05029 1.87028C5.63724 0.96318 6.66661 0.441749 7.74518 0.505194L12.9401 0.810797C13.9177 0.868302 14.8057 1.3993 15.3189 2.23331L17.3314 5.50364C18.0252 6.63095 17.8981 8.07968 17.0187 9.06901L16.2 9.99012C15.2206 11.0919 15.1868 12.742 16.1203 13.8829L17.8994 16.0573C18.5801 16.8894 19.654 17.2935 20.7144 17.1168L27.2415 16.029C27.7391 15.946 28.2496 15.9899 28.7258 16.1566L37.5188 19.2341C37.8373 19.3456 38.1724 19.4025 38.5098 19.4025H43.6639C44.1872 19.4025 44.6954 19.5392 45.1415 19.7916C45.4204 19.9494 45.675 20.1525 45.8938 20.3956L48.6062 23.4094C49.1751 24.0416 49.9856 24.4025 50.8361 24.4025H61.5141C62.1545 24.4025 62.7781 24.6075 63.2937 24.9874L71.648 31.1432C71.8814 31.3152 72.1386 31.4524 72.4114 31.5507L83.5432 35.5581C84.1637 35.7815 84.8406 35.7942 85.469 35.5942L94.7028 32.6562C95.2243 32.4903 95.6905 32.1848 96.0509 31.7729L101.632 25.394C102.185 24.7622 102.978 24.3909 103.817 24.3704L122.438 23.9162C122.809 23.9072 123.176 23.8292 123.519 23.6864L128.446 21.6333C128.812 21.481 129.204 21.4025 129.6 21.4025H133.524C134.158 21.4025 134.776 21.2017 135.289 20.8287L144.575 14.0753C145.171 13.642 145.905 13.4431 146.638 13.5164L153.092 14.1618C151.935 14.782 150.909 15.6251 150.075 16.6441Z" fill="white"/>
<path d="M68 72.4025L67.9378 72.3781M67.9378 72.3781L70.1066 69.2083C70.6658 68.391 71.5923 67.9024 72.5825 67.9024H103.5C105.157 67.9024 106.5 69.2455 106.5 70.9024L106.463 70.4023L105.58 62.6094C105.527 62.1445 105.584 61.6736 105.746 61.2345L108.191 54.5973C108.667 53.3069 109.959 52.505 111.326 52.6515L120.849 53.6718C120.466 52.6283 120.487 51.4281 121.039 50.324L123.01 46.3833C123.959 44.485 125.666 43.0761 127.709 42.5038L134.319 40.6532C135.959 40.1939 137.193 38.8388 137.498 37.1627L137.575 36.7387C137.835 35.3111 138.891 34.1594 140.291 33.7776C142.124 33.2776 143.298 31.4907 143.03 29.6096L142.832 28.2279C142.621 26.7459 143.04 25.243 143.988 24.0843L150.075 16.6441C150.909 15.6251 151.935 14.782 153.092 14.1618L146.638 13.5164C145.905 13.4431 145.171 13.642 144.575 14.0753L135.289 20.8287C134.776 21.2017 134.158 21.4025 133.524 21.4025H129.6C129.204 21.4025 128.812 21.481 128.446 21.6333L123.519 23.6864C123.176 23.8292 122.809 23.9072 122.438 23.9162L103.817 24.3704C102.978 24.3909 102.185 24.7622 101.632 25.394L96.0509 31.7729C95.6905 32.1848 95.2243 32.4903 94.7028 32.6562L85.469 35.5942C84.8406 35.7942 84.1637 35.7815 83.5432 35.5581L72.4114 31.5507C72.1386 31.4524 71.8814 31.3152 71.648 31.1432L63.2937 24.9874C62.7781 24.6075 62.1545 24.4025 61.5141 24.4025H50.8361C49.9856 24.4025 49.1751 24.0416 48.6062 23.4094L45.8938 20.3956C45.675 20.1525 45.4204 19.9494 45.1415 19.7916C44.6954 19.5392 44.1872 19.4025 43.6639 19.4025H38.5098C38.1724 19.4025 37.8373 19.3456 37.5188 19.2341L28.7258 16.1566C28.2496 15.9899 27.7391 15.946 27.2415 16.029L20.7144 17.1168C19.654 17.2935 18.5801 16.8894 17.8994 16.0573L16.1203 13.8829C15.1868 12.742 15.2206 11.0919 16.2 9.99012L17.0187 9.06901C17.8981 8.07968 18.0252 6.63095 17.3314 5.50364L15.3189 2.23331C14.8057 1.3993 13.9177 0.868302 12.9401 0.810797L7.74518 0.505194C6.66661 0.441749 5.63724 0.96318 5.05029 1.87028L0.981293 8.15873C0.667139 8.64424 0.5 9.21021 0.5 9.78849V14.9025H1.22949C1.40946 14.9025 1.58907 14.8863 1.76614 14.8541L5.45349 14.1837C6.42205 14.0076 7.41538 14.3179 8.11148 15.014L16.8337 23.7362C17.2675 24.17 17.8238 24.4603 18.4276 24.5682L29.0274 26.461C30.4582 26.7165 31.5 27.9608 31.5 29.4143V33.1615C31.5 34.2381 30.9231 35.2321 29.9884 35.7663L26.1689 37.9488C25.1518 38.5301 24.566 39.6503 24.6689 40.8173L25.7285 52.8259C25.8772 54.5104 27.388 55.7392 29.0674 55.5416L40.6658 54.1771C42.0366 54.0159 43.3406 54.8108 43.8253 56.1032L45.27 59.9559C45.7091 61.1268 46.8285 61.9025 48.079 61.9025H50.5218C51.7219 61.9025 52.8065 62.6177 53.2793 63.7207L53.7724 64.8715C53.9228 65.2223 54.1387 65.5412 54.4085 65.811L56.0563 67.4588C56.3489 67.7514 56.699 67.9804 57.0844 68.1312L67.9378 72.3781Z" stroke="#A6C1E9"/>
</svg>
