<svg width="52" height="65" viewBox="0 0 52 65" fill="none" xmlns="http://www.w3.org/2000/svg">
<path d="M50.4989 48.2025L43.1966 7.67481C42.8819 5.92838 41.5119 4.56327 39.7644 4.25486C38.1904 3.97711 37.0176 2.88859 36.5219 1.53753L26.9987 0.51719C25.6314 0.370688 24.3395 1.17263 23.8641 2.46302L21.4188 9.1002C21.257 9.53931 21.2002 10.0102 21.2529 10.4752L22.1362 18.268L22.1729 18.7681V25.4558C22.1729 25.9816 21.994 26.4918 21.6655 26.9024C20.8488 27.9232 21.0385 29.4172 22.0843 30.2016L22.139 30.2426C23.2403 31.0685 23.4142 32.6533 22.5184 33.6984L12.518 45.3655C12.2897 45.6318 12.1099 45.9361 11.9868 46.2645L9.54059 52.7877C9.30253 53.4225 8.85647 53.9579 8.2751 54.3068L4.17294 56.7681L0.205765 58.5594L1.59221 58.1897C2.57747 57.927 3.62872 58.1827 4.38322 58.8686L8.09269 62.2409C8.4434 62.5597 8.71315 62.9567 8.8805 63.3989C10.8048 60.8385 13.8631 59.333 17.1145 59.4113L40.4165 59.9728C46.7454 60.1253 51.6215 54.4329 50.4989 48.2025Z" fill="white" stroke="#A6C1E9"/>
</svg>
