<svg width="100" height="119" viewBox="0 0 100 119" fill="none" xmlns="http://www.w3.org/2000/svg">
<path d="M95.083 18.0115L95.7252 17.7822C97.878 17.0133 99.315 14.9741 99.315 12.6881C99.315 12.4477 99.3311 12.2082 99.3628 11.9711L97.272 10.8095C96.3726 10.3099 95.8148 9.3619 95.8148 8.33304C95.8148 6.7684 94.5464 5.5 92.9818 5.5H92.3768C91.3978 5.5 90.4804 5.02238 89.9191 4.2204L88.2105 1.7796C87.6491 0.977622 86.7318 0.5 85.7528 0.5H84.0648C83.0983 0.5 82.3148 1.2835 82.3148 2.25C82.3148 3.2165 81.5313 4 80.5648 4H78.9306C78.5243 4 78.1222 4.08251 77.7488 4.24255L74.8148 5.5L67.353 8.13361C66.6827 8.37016 66.1182 8.83701 65.7601 9.45096L63.7652 12.8708C63.1842 13.8667 62.0839 14.4415 60.9346 14.3496L39.6197 12.6444C38.5097 12.5556 37.5402 11.8592 37.1015 10.8357L35.401 6.86777C35.0317 6.00602 34.2807 5.36649 33.3711 5.1391L29.2871 4.11807C28.9743 4.03987 28.6761 3.91173 28.4041 3.73862L25.5099 1.89688C24.2504 1.09535 22.5931 1.34196 21.6215 2.47549L21.037 3.15741C20.571 3.70114 20.3148 4.39364 20.3148 5.10977V10.759C20.3148 11.8356 19.7379 12.8296 18.8032 13.3638L18.3264 13.6362C17.9032 13.878 17.5534 14.2141 17.2972 14.6095C16.9876 15.0873 16.8148 15.6518 16.8148 16.241V22.8263C16.8148 24.3501 15.6724 25.6318 14.1587 25.8065L5.92857 26.7561C4.66246 26.9022 3.62684 27.8323 3.34611 29.0756L0.573685 41.3534C0.407238 42.0905 0.525109 42.8633 0.903732 43.5173L4.86497 50.3594C5.44512 51.3615 5.39681 52.608 4.74083 53.5621L1.66966 58.0293C0.876939 59.1823 0.986625 60.7302 1.93401 61.76L11.0226 71.6389C11.532 72.1927 11.8148 72.9176 11.8148 73.6701V85.1459C11.8148 86.2822 12.4568 87.321 13.4732 87.8292L15.6554 88.9203C16.3953 89.2903 16.9495 89.9492 17.1872 90.7415L18.186 94.0708C18.2714 94.3554 18.3986 94.6257 18.5634 94.8729L19.1881 95.81C19.8686 96.8307 21.1019 97.3343 22.3023 97.0816L28.323 95.8141C29.2605 95.6167 30.2358 95.879 30.9479 96.5198L33.9591 99.2299C34.51 99.7257 35.2249 100 35.966 100H36.3323C37.2667 100 38.1477 100.435 38.7153 101.178L44.1004 108.22C44.2428 108.406 44.4066 108.575 44.5884 108.723L56.2576 118.231C57.5071 117.132 59.1314 116.5 60.8462 116.5H62.315C81.315 114 89.815 98.0001 84.815 77.0001C81.5596 63.3273 84.707 52.0391 87.7884 45.8845C88.9247 43.615 89.6532 41.0972 89.3623 38.5758L88.5949 31.9251C88.411 30.3318 88.6131 28.7177 89.1841 27.2189L91.2687 21.7467C91.9327 20.0037 93.3265 18.6388 95.083 18.0115Z" fill="white" stroke="#A6C1E9"/>
</svg>
