<svg width="451" height="762" viewBox="0 0 451 762" fill="none" xmlns="http://www.w3.org/2000/svg">
<path d="M20.818 710.732C24.8366 716.185 29.2123 719.851 31.8361 721.614C32.6156 722.138 33.5007 722.471 34.4149 722.686L47.5423 725.775C49.1788 726.16 50.6918 726.951 51.9414 728.076L72.1844 746.295C74.0207 747.947 76.4135 748.862 78.8839 748.862C81.5361 748.862 84.0903 749.915 85.9656 751.791L91.8212 757.646C94.9221 760.747 99.6815 761.466 103.56 759.419L111.538 755.208C113.536 754.154 116.006 754.755 117.296 756.609C119.508 759.789 124.441 758.844 125.321 755.072L125.826 752.907C126.224 751.201 127.89 750.108 129.613 750.421C131.049 750.682 132.486 749.964 133.138 748.658L135.045 744.845C136.3 742.336 138.656 740.558 141.414 740.041L150.533 738.331C152.131 738.032 153.535 737.087 154.414 735.719L155.313 734.32C156.549 732.398 159.095 731.814 161.045 733.006C163.634 734.588 166.996 732.992 167.406 729.985L167.686 727.936C167.906 726.324 167.321 724.706 166.122 723.607C163.942 721.609 163.982 718.16 166.207 716.213L167.538 715.048C169.109 713.674 169.93 711.633 169.749 709.554L169.518 706.892C169.226 703.54 170.969 700.339 173.943 698.765C176.212 697.563 177.805 695.387 178.264 692.861L179.885 683.944C180.609 679.962 185.411 678.306 188.436 680.995L189.184 681.66C190.028 682.41 191.193 682.683 192.283 682.386L193.647 682.014C194.904 681.671 195.56 680.289 195.031 679.098C194.506 677.917 195.147 676.545 196.39 676.19L197.706 675.813C199.522 675.295 200.538 673.367 199.941 671.576L199.9 671.451C199.394 669.935 200 668.269 201.361 667.431L202.093 666.981C203.822 665.917 204.052 663.492 202.561 662.115C200.92 660.6 201.399 657.889 203.464 657.039C205.436 656.227 205.99 653.697 204.54 652.134L203.927 651.474C202.402 649.832 202.686 647.22 204.529 645.944L206.039 644.899C206.977 644.249 207.537 643.181 207.537 642.04V639.982C207.537 638.036 209.728 636.896 211.322 638.012C212.067 638.533 213.042 638.59 213.842 638.159L216.774 636.58C218.244 635.789 219.928 635.489 221.581 635.725L225.622 636.303C225.896 636.342 226.175 636.331 226.446 636.271C228.218 635.877 228.857 633.682 227.574 632.399L227.104 631.929C226.442 631.267 226.176 630.306 226.403 629.398L228.537 620.862L229.989 612.874C230.325 611.026 231.67 609.522 233.469 608.982C234.789 608.586 235.886 607.663 236.502 606.431L239.6 600.235C240.19 599.056 241.3 598.223 242.597 597.987C244.589 597.625 246.037 595.89 246.037 593.866V587.212C246.037 585.777 244.672 584.734 243.287 585.112C241.902 585.49 240.537 584.447 240.537 583.011V579.973C240.537 579.243 240.359 578.524 240.019 577.878L237.334 572.776C236.217 570.654 236.277 568.104 237.493 566.036L238.09 565.021C239.494 562.634 238.932 559.578 236.769 557.848C234.622 556.13 234.05 553.103 235.422 550.72L239.571 543.513C239.776 543.156 240.001 542.816 240.244 542.493C242.169 539.932 245.227 538.427 248.478 538.505L271.78 539.067C278.109 539.219 282.985 533.527 281.863 527.296L274.56 486.769C274.246 485.022 272.876 483.657 271.128 483.349C269.554 483.071 268.381 481.982 267.886 480.631C267.503 479.588 267.524 478.388 268.076 477.283L270.046 473.343C270.995 471.444 272.702 470.036 274.746 469.463L281.355 467.613C282.996 467.153 284.23 465.798 284.535 464.122L284.612 463.698C284.871 462.271 285.928 461.119 287.328 460.737C289.161 460.237 290.335 458.45 290.066 456.569L289.869 455.187C289.657 453.705 290.076 452.202 291.024 451.044L297.112 443.604C297.945 442.585 298.971 441.741 300.129 441.121C300.274 441.043 300.421 440.969 300.57 440.899L313.087 434.97C315.804 433.682 317.537 430.945 317.537 427.938C317.537 425.385 318.789 422.995 320.888 421.542L329.795 415.375C330.289 415.034 330.75 414.648 331.174 414.224L332.749 412.649C335.641 409.758 340.001 408.918 343.76 410.529L344.037 410.648L350.474 413.406C351.18 413.709 351.919 413.929 352.675 414.063L366.991 416.589C368.012 416.769 369.059 416.757 370.076 416.554L374.681 415.633C376.789 415.211 378.129 413.127 377.636 411.034C377.075 408.648 378.885 406.362 381.337 406.362H393.006C395.498 406.362 397.8 405.026 399.037 402.862C399.423 402.186 399.912 401.592 400.479 401.093C401.729 399.994 403.353 399.362 405.068 399.362H406.537C425.537 396.862 434.037 380.862 429.037 359.862C425.781 346.189 428.929 334.901 432.01 328.746C433.146 326.477 433.875 323.959 433.584 321.438L432.817 314.787C432.633 313.194 432.835 311.579 433.406 310.081L435.49 304.609C436.154 302.866 437.548 301.501 439.305 300.873L439.947 300.644C442.1 299.875 443.537 297.836 443.537 295.55C443.537 295.31 443.553 295.07 443.584 294.833C443.656 294.298 443.807 293.776 444.035 293.283L449.763 280.872C451.377 277.375 450.305 273.225 447.199 270.948C445.795 269.918 444.76 268.463 444.248 266.799L441.535 257.981C441.205 256.909 440.698 255.901 440.033 254.997L431.023 242.744C429.433 240.581 427.039 239.148 424.381 238.768L424.192 238.741C422.452 238.493 420.809 237.79 419.428 236.705L400.537 221.862L387.075 210.571C385.739 209.451 384.72 208.002 384.117 206.366L382.896 203.052C382.546 202.102 381.988 201.265 381.281 200.591C380.3 199.654 379.033 199.028 377.639 198.842C375.4 198.544 373.474 197.107 372.55 195.046L369.358 187.925C368.199 185.339 368.191 182.382 369.338 179.79L376.931 162.622C378.177 159.807 381.142 158.163 384.189 158.598C387.328 159.046 390.365 157.29 391.543 154.346L393.007 150.686C393.353 149.821 393.939 149.074 394.697 148.533L396.461 147.273C398.414 145.878 398.343 142.952 396.324 141.654C394.774 140.657 394.301 138.606 395.259 137.032L397.559 133.254C399.336 130.334 399.042 126.603 396.827 123.998L395.335 122.242C393.438 120.01 393.453 116.727 395.372 114.514C397.215 112.387 397.311 109.259 395.601 107.023L393.945 104.858C392.707 103.239 392.037 101.258 392.037 99.22V96.7763C392.037 91.6297 396.72 87.754 401.776 88.717C402.282 88.8134 402.821 88.8854 403.259 88.6142C404.637 87.7608 406.875 84.5049 408.537 75.8619C410.378 66.2877 408.123 56.2615 406.453 51.4787C406.191 50.7284 405.806 50.0349 405.34 49.3912C390.496 28.899 369.509 11.0668 357.685 2.3219C355.106 0.414274 351.749 0.00535798 348.731 1.09199L346.394 1.93317C343.073 3.12885 340.628 5.98708 339.961 9.45357L339.346 12.6551C338.829 15.3416 337.234 17.6991 334.933 19.1784L333.193 20.2974C332.099 21.0003 331.153 21.9097 330.408 22.9746L326.521 28.5271C325.26 30.3291 323.284 31.5011 321.098 31.744L318.144 32.0722C316.591 32.2447 315.329 33.4024 315.022 34.9344C314.539 37.349 311.823 38.5707 309.696 37.3299L309.008 36.9282C308.372 36.5573 307.649 36.3619 306.913 36.3619H305.746C303.746 36.3619 301.883 35.345 300.802 33.6627L300.132 32.6208C298.931 30.7522 296.536 30.0545 294.519 30.9854C292.746 31.8038 291.713 33.6819 291.971 35.6178L292.26 37.7864C292.429 39.052 291.847 40.3005 290.77 40.986L289.332 41.9011C288.19 42.6279 288.075 44.2516 289.103 45.1326C289.909 45.8241 290.041 47.023 289.403 47.873L287.162 50.8611C286.432 51.8353 286.037 53.0202 286.037 54.2379C286.037 56.4449 287.327 58.4482 289.336 59.3615L290.036 59.6796C291.018 60.1263 291.863 60.8283 292.482 61.7126L293.227 62.7759C294.303 64.3132 294.251 66.3724 293.099 67.8535C292.136 69.0912 291.928 70.7564 292.557 72.1929L294.292 76.1587C294.776 77.2666 295.594 78.1962 296.631 78.8184L299.485 80.5308C301.988 82.0324 301.924 85.6927 299.409 87.1725C297.781 88.1301 297.094 90.1627 297.838 91.8987C298.736 93.9928 297.575 96.3969 295.377 96.9964L293.45 97.5219C290.679 98.2777 288.959 101.042 289.504 103.862L290.55 109.265C291.062 111.908 289.037 114.362 286.345 114.362C283.072 114.362 281.009 117.883 282.607 120.738L284.371 123.888C285.346 125.629 284.991 127.812 283.515 129.155C281.84 130.677 281.637 133.238 283.051 135.005L285.432 137.98C288.139 141.365 287.258 146.358 283.556 148.611L283.017 148.939C280.649 150.38 279.495 153.194 280.167 155.882L280.817 158.484C281.227 160.124 280.342 161.81 278.759 162.403C277.973 162.698 277.328 163.279 276.953 164.03L274.969 167.996C274.139 169.658 271.795 169.734 270.859 168.129C270.155 166.921 268.555 166.598 267.437 167.437L252.511 178.631C249.465 180.915 247.981 184.731 248.683 188.474L249.378 192.183C250.081 195.93 248.478 199.734 245.306 201.849C242.114 203.977 240.513 207.813 241.245 211.578L242.314 217.073C243.059 220.906 241.505 224.822 238.334 227.101L229.332 233.571C228.165 234.41 226.763 234.862 225.325 234.862C223.84 234.862 222.394 235.344 221.206 236.235L207.15 246.777C207.051 246.851 206.951 246.923 206.849 246.992C204.38 248.671 201.165 248.833 198.531 247.384C195.308 245.611 191.289 246.276 188.809 248.993L188.658 249.157C185.382 252.746 179.723 252.717 176.483 249.096L175.367 247.849C174.521 246.903 173.311 246.362 172.041 246.362C170.766 246.362 169.552 245.817 168.705 244.864L168.463 244.592C167.003 242.949 164.679 242.384 162.628 243.173L161.858 243.469C160.364 244.044 158.71 244.044 157.216 243.469L155.929 242.974C154.045 242.25 151.986 242.112 150.023 242.58L144.932 243.792C143.454 244.143 142.284 245.271 141.878 246.735C141.039 249.753 137.298 250.806 135.008 248.669L134.427 248.126C133.251 247.029 131.593 246.616 130.04 247.034L125.292 248.312C122.596 249.038 121.55 252.307 123.325 254.462L123.841 255.089C125.196 256.734 124.61 259.218 122.662 260.084C122.25 260.267 121.804 260.362 121.353 260.362H118.284C115.862 260.362 114.075 262.624 114.636 264.98L114.717 265.318C115.324 267.869 113.039 270.17 110.483 269.58C109.864 269.437 109.217 269.464 108.611 269.658L97.0367 273.362L95.5088 273.667C92.3206 274.305 90.3916 277.569 91.3707 280.67L91.7759 281.953C92.2317 283.396 91.7264 284.97 90.5156 285.878C89.3256 286.77 88.8149 288.308 89.2347 289.735L89.9675 292.227C90.6223 294.453 89.9575 296.858 88.2523 298.432C86.0971 300.421 85.6622 303.663 87.2167 306.15L87.4619 306.542C88.7427 308.591 88.813 311.174 87.6456 313.29L83.1409 321.454C82.0994 323.342 81.6959 325.516 81.9904 327.651L83.0085 335.032L83.2534 336.808C83.4228 338.036 82.7909 339.235 81.6826 339.789C80.4383 340.411 79.8136 341.831 80.1958 343.169L83.5099 354.768C84.127 356.928 83.3341 359.244 81.5226 360.572C79.0713 362.37 78.6001 365.842 80.4837 368.228L82.5662 370.866C83.711 372.316 83.6695 374.374 82.4672 375.776C81.8667 376.477 81.5367 377.369 81.5367 378.292V379.629V383.088C81.5367 385.215 82.2149 387.287 83.4726 389.002L85.1007 391.222C86.3585 392.937 87.0367 395.009 87.0367 397.136V404.81C87.0367 406.796 86.4257 408.735 85.2867 410.362L84.8997 410.915C84.0126 412.182 83.5367 413.692 83.5367 415.239C83.5367 417.238 82.7423 419.156 81.3283 420.57L80.3335 421.565C78.3739 423.525 77.9215 426.533 79.2181 428.982L79.4894 429.495C80.6912 431.765 80.1861 434.562 78.2663 436.269C77.4637 436.982 76.4721 437.449 75.4107 437.612L73.1047 437.967C71.4206 438.226 69.8307 438.911 68.4858 439.957L65.3973 442.359C62.9614 444.254 61.5367 447.167 61.5367 450.253V450.415C61.5367 451.375 61.6747 452.329 61.9465 453.249L67.3785 471.634C67.8115 473.1 68.5747 474.447 69.6094 475.571L77.3256 483.959C78.0732 484.771 78.3216 485.864 78.0896 486.862C77.9445 487.486 77.6118 488.073 77.0959 488.532C75.9113 489.584 75.6724 491.344 76.5334 492.675L78.0912 495.082C79.5176 497.287 79.2102 500.188 77.3535 502.045L76.9436 502.455C75.7667 503.632 74.0441 504.078 72.4436 503.621C70.0098 502.926 67.473 504.335 66.7776 506.769L66.4483 507.921C66.1784 508.866 65.6721 509.727 64.9773 510.421L63.6877 511.711C62.3104 513.088 60.4425 513.862 58.4947 513.862C56.5968 513.862 54.7726 514.597 53.4045 515.912L46.3135 522.73C44.1899 524.772 44.0182 528.113 45.9211 530.362C47.2274 531.905 47.5968 534.035 46.8867 535.929L46.2699 537.573C45.5425 539.513 46.209 541.699 47.8946 542.903C48.3264 543.212 48.6874 543.58 48.9754 543.988C50.1633 545.671 50.109 548.031 48.6549 549.666L46.3373 552.274C44.874 553.92 42.7765 554.862 40.5738 554.862H35.6344C34.9048 554.862 34.1253 554.88 33.5603 555.341C32.4019 556.288 31.7011 558.636 34.5367 563.362C37.7927 568.789 36.386 574.624 34.9776 577.54C34.7074 578.099 34.3242 578.592 33.9302 579.072C31.1495 582.462 29.8482 585.96 29.5367 587.362C28.8294 591.37 29.3612 594.648 30.1901 596.972C31.0115 599.275 31.7548 601.771 31.2754 604.169C31.1172 604.959 30.8373 605.721 30.4457 606.426L29.7721 607.638C28.9951 609.037 28.9273 610.721 29.5894 612.178L30.3556 613.863C30.7653 614.765 30.5729 615.826 29.8728 616.526C29.0907 617.308 28.9519 618.526 29.5381 619.464L30.2043 620.53C30.7389 621.385 30.9265 622.413 30.7287 623.402L29.6573 628.759C29.5778 629.156 29.4149 629.532 29.1793 629.862C28.0928 631.383 28.7302 633.52 30.4723 634.198L33.7147 635.459C35.1146 636.003 36.0367 637.351 36.0367 638.853V638.948C36.0367 639.853 35.677 640.722 35.0367 641.362C34.3964 642.002 34.0367 642.871 34.0367 643.776V644.77C34.0367 646.971 32.3925 648.98 31.9288 651.133C31.7906 651.774 31.7956 652.518 32.0367 653.362C32.4763 654.901 32.3321 656.006 32.0023 656.746C31.5963 657.656 30.5389 657.96 29.5457 658.042C27.3072 658.226 24.1293 658.136 22.5367 656.862C20.0367 654.862 16.5367 654.862 13.0367 657.862C12.3891 658.417 11.8896 658.965 11.5083 659.489C9.94908 661.635 10.062 665.192 7.56988 666.1C6.85302 666.361 6.00959 666.483 5.03677 666.362C4.98181 666.355 4.92776 666.349 4.87459 666.344C1.05979 666.017 -0.813893 673.839 1.53677 676.862C2.82123 678.513 3.66377 680.157 4.19954 681.582C5.07586 683.913 6.02597 686.351 7.78677 688.112C9.54756 689.872 10.4381 692.335 11.4112 694.627C12.0833 696.21 13.2139 697.944 15.0368 699.362C16.6421 700.61 17.5779 702.038 18.0926 703.369C19.0333 705.803 19.2699 708.632 20.818 710.732Z" fill="white"/>
<path d="M362.537 298.362L359.127 295.379C358.752 295.05 358.537 294.576 358.537 294.077V293.923C358.537 292.876 357.553 292.108 356.537 292.362C355.521 292.616 354.537 291.847 354.537 290.8V289.985C354.537 289.278 354.204 288.612 353.638 288.188L353.537 288.112C352.907 287.64 352.537 286.899 352.537 286.112V280.321C352.537 278.891 351.527 277.66 350.125 277.379L349.948 277.344C348.546 277.064 347.537 275.832 347.537 274.402V273.662C347.537 272.554 346.926 271.536 345.948 271.015L341.625 268.709C340.647 268.188 340.037 267.17 340.037 266.062V264.524C340.037 263.233 340.863 262.086 342.088 261.678L343.438 261.228C344.145 260.992 344.739 260.502 345.104 259.853L348.807 253.27C348.959 253 349.153 252.754 349.38 252.543L355.078 247.252C355.689 246.684 356.037 245.888 356.037 245.054V237.042C356.037 236.594 356.137 236.152 356.33 235.748L366.778 213.902C366.949 213.545 367.188 213.226 367.482 212.962L381.281 200.591M247.414 222.23C248.137 222.315 248.805 222.661 249.293 223.202L252.408 226.664C252.817 227.118 253.356 227.437 253.951 227.577L261.537 229.362L266.075 230.795C268.112 231.438 270.005 229.473 269.287 227.462C268.856 226.255 269.374 224.915 270.504 224.312L274.985 221.923C275.659 221.563 276.448 221.479 277.183 221.689C278.548 222.079 279.997 221.442 280.631 220.172L281.92 217.596C282.311 216.813 283.026 216.24 283.875 216.027L293.177 213.702C294.039 213.486 294.952 213.664 295.67 214.186L299.621 217.059C299.896 217.259 300.135 217.505 300.328 217.786L304.341 223.623C305.036 224.634 306.349 225.014 307.476 224.53C308.423 224.125 309.037 223.194 309.037 222.164V217.862C309.037 216.205 310.38 214.862 312.037 214.862H314.723C315.56 214.862 316.36 214.512 316.928 213.897L319.067 211.579C320.379 210.157 322.739 210.703 323.295 212.555C323.452 213.078 323.776 213.536 324.218 213.857L327.801 216.463C328.577 217.028 329.037 217.93 329.037 218.889V222.953C329.037 223.546 329.212 224.125 329.54 224.618L335.872 234.115C335.981 234.279 336.107 234.432 336.247 234.572L341.158 239.483C341.721 240.046 342.037 240.809 342.037 241.604V251.94C342.037 252.84 342.44 253.692 343.137 254.262L347.537 257.862M219.037 372.862L220.733 370.318C220.934 370.016 221.078 369.681 221.16 369.328L222.383 364.028C222.484 363.589 222.682 363.179 222.963 362.828L224.931 360.369C225.855 359.214 225.799 357.558 224.8 356.467L221.794 353.188C221.307 352.656 221.037 351.962 221.037 351.242C221.037 349.651 219.747 348.362 218.157 348.362H216.779C215.984 348.362 215.221 348.046 214.658 347.483L213.648 346.473C212.952 345.777 211.959 345.467 210.99 345.643L208.695 346.06C207.665 346.248 206.612 345.884 205.916 345.102L200.836 339.386C199.814 338.236 199.827 336.5 200.866 335.366L203.748 332.222C204.255 331.669 204.537 330.945 204.537 330.195V314.075C204.537 313.933 204.547 313.791 204.567 313.651L205.281 308.65C205.438 307.55 204.974 306.453 204.076 305.799L201.029 303.584C200.393 303.121 199.964 302.427 199.835 301.651L199.135 297.452C199.07 297.062 198.929 296.69 198.72 296.355L198.489 295.986C197.481 294.373 198.208 292.243 199.991 291.582L208.338 288.491C209.383 288.104 210.127 287.17 210.271 286.066L211.41 277.33C211.492 276.701 211.373 276.062 211.069 275.505L205.958 266.134C205.683 265.63 205.558 265.057 205.599 264.484L206.849 246.992M230.537 375.362L234.999 380.568C235.86 381.572 237.357 381.723 238.401 380.911C239.713 379.891 241.638 380.426 242.235 381.978L243.325 384.812C243.465 385.175 243.674 385.508 243.941 385.791L250.648 392.918C251.215 393.52 252.006 393.862 252.833 393.862H256.688C257.243 393.862 257.787 394.016 258.26 394.307L263.022 397.237C263.674 397.638 264.147 398.273 264.346 399.012L267.433 410.479C267.502 410.733 267.537 410.995 267.537 411.259V413.542C267.537 414.547 268.351 415.362 269.356 415.362C269.476 415.362 269.596 415.35 269.713 415.326L271.565 414.956C273.201 414.629 274.256 413.029 273.912 411.396L272.627 405.293C272.567 405.007 272.466 404.731 272.326 404.475L270.559 401.236C269.947 400.114 270.113 398.728 270.973 397.782L273.796 394.677C274.273 394.152 274.537 393.469 274.537 392.761C274.537 391.611 275.228 390.574 276.289 390.132L279.64 388.735C280.218 388.494 280.691 388.053 280.971 387.493C281.973 385.489 284.868 385.595 285.721 387.666L286.272 389.004C286.735 390.128 287.83 390.862 289.046 390.862H293.354C294.114 390.862 294.846 391.15 295.401 391.669L301.47 397.333C301.842 397.68 302.296 397.927 302.789 398.05L317.861 401.818C319.151 402.14 320.5 401.575 321.174 400.428L324.167 395.341C324.706 394.424 325.689 393.862 326.752 393.862H333.225C334.339 393.862 335.361 394.479 335.88 395.465L339.722 402.764C339.929 403.158 340.221 403.5 340.577 403.767L342.837 405.462C343.592 406.028 344.037 406.918 344.037 407.862V410.648M190.537 448.862L196.636 441.02C197.204 440.289 198.078 439.862 199.004 439.862H206.276C207.836 439.862 209.136 438.666 209.266 437.111L209.858 430.002C209.965 428.722 210.874 427.652 212.12 427.341L219.043 425.61C220.683 425.2 221.66 423.518 221.205 421.891L218.832 413.418C218.641 412.736 218.698 412.008 218.992 411.364L231.266 384.455C231.444 384.064 231.537 383.639 231.537 383.21V375.953C231.537 374.464 230.446 373.201 228.973 372.985L217.973 371.367C216.162 371.101 214.537 372.504 214.537 374.335V380.014C214.537 380.871 214.17 381.687 213.53 382.257L205.8 389.128C205.625 389.283 205.469 389.458 205.335 389.65L199.432 398.082C198.871 398.884 197.954 399.362 196.975 399.362H176.537M147.537 442.362V436.748C147.537 436.17 147.704 435.604 148.018 435.118L152.087 428.83C152.674 427.923 153.703 427.401 154.782 427.465L159.977 427.77C160.954 427.828 161.842 428.359 162.356 429.193L164.368 432.463C165.062 433.59 164.935 435.039 164.055 436.028L163.237 436.95C162.257 438.051 162.223 439.701 163.157 440.842L164.936 443.017C165.617 443.849 166.691 444.253 167.751 444.076L174.278 442.988C174.776 442.905 175.286 442.949 175.762 443.116L184.555 446.194C184.874 446.305 185.209 446.362 185.546 446.362H190.701C191.551 446.362 192.361 446.723 192.93 447.355L195.643 450.369C196.212 451.001 197.022 451.362 197.873 451.362H208.551C209.191 451.362 209.815 451.567 210.33 451.947L218.685 458.103C218.918 458.275 219.175 458.412 219.448 458.51L230.58 462.518C231.2 462.741 231.877 462.754 232.506 462.554L241.739 459.616C242.261 459.45 242.727 459.144 243.088 458.732L248.669 452.353C249.222 451.722 250.014 451.35 250.854 451.33L269.475 450.876C269.846 450.867 270.213 450.789 270.555 450.646L275.483 448.593C275.848 448.44 276.241 448.362 276.637 448.362H280.561C281.195 448.362 281.813 448.161 282.326 447.788L291.612 441.035C292.207 440.601 292.942 440.403 293.675 440.476L300.129 441.121M215.037 499.362L204.121 495.091C203.736 494.94 203.386 494.711 203.093 494.418L201.445 492.771C201.175 492.501 200.959 492.182 200.809 491.831L200.316 490.68C199.843 489.577 198.759 488.862 197.558 488.862H195.116C193.865 488.862 192.746 488.086 192.307 486.915L190.862 483.063C190.377 481.77 189.073 480.975 187.702 481.137L176.104 482.501C174.425 482.699 172.914 481.47 172.765 479.785L171.706 467.777C171.603 466.61 172.188 465.49 173.206 464.908L177.025 462.726C177.96 462.192 178.537 461.198 178.537 460.121V456.374C178.537 454.92 177.495 453.676 176.064 453.42L165.464 451.528C164.86 451.42 164.304 451.129 163.87 450.696L155.148 441.973C154.452 441.277 153.459 440.967 152.49 441.143L148.803 441.814C148.626 441.846 148.446 441.862 148.266 441.862H141.651C140.383 441.862 139.252 442.659 138.826 443.853L135.032 454.476C134.719 455.35 134.02 456.031 133.138 456.319L110.785 463.618C110.294 463.778 109.771 463.809 109.265 463.708L104.585 462.772C103.354 462.525 102.1 463.072 101.442 464.141L99.2141 467.761C98.7817 468.464 98.0789 468.957 97.271 469.126L88.6981 470.912C87.4125 471.18 86.4504 472.252 86.3239 473.56L85.299 484.151C85.1502 485.689 83.8579 486.862 82.3129 486.862H78.0896M253.5 497.362L252.617 489.569C252.564 489.104 252.621 488.633 252.783 488.194L255.228 481.557C255.703 480.266 256.995 479.464 258.363 479.611L267.886 480.631M381.281 200.591C380.3 199.654 379.033 199.028 377.639 198.842C375.4 198.544 373.474 197.107 372.55 195.046L369.358 187.925C368.199 185.339 368.191 182.382 369.338 179.79L376.931 162.622C378.177 159.807 381.142 158.163 384.189 158.598C387.328 159.046 390.365 157.29 391.543 154.346L393.007 150.686C393.353 149.821 393.939 149.074 394.697 148.533L396.461 147.273C398.414 145.878 398.343 142.952 396.324 141.654C394.774 140.657 394.301 138.606 395.259 137.032L397.559 133.254C399.336 130.334 399.042 126.603 396.827 123.998L395.335 122.242C393.438 120.01 393.453 116.727 395.372 114.514C397.215 112.387 397.311 109.259 395.601 107.023L393.945 104.858C392.707 103.239 392.037 101.258 392.037 99.22V96.7763C392.037 91.6297 396.72 87.754 401.776 88.717C402.282 88.8134 402.821 88.8854 403.259 88.6142C404.637 87.7608 406.875 84.5049 408.537 75.8619C410.378 66.2877 408.123 56.2615 406.453 51.4787C406.191 50.7284 405.806 50.0349 405.34 49.3912C390.496 28.899 369.509 11.0668 357.685 2.3219C355.106 0.414274 351.749 0.00535798 348.731 1.09199L346.394 1.93317C343.073 3.12885 340.628 5.98708 339.961 9.45357L339.346 12.6551C338.829 15.3416 337.234 17.6991 334.933 19.1784L333.193 20.2974C332.099 21.0003 331.153 21.9097 330.408 22.9746L326.521 28.5271C325.26 30.3291 323.284 31.5011 321.098 31.744L318.144 32.0722C316.591 32.2447 315.329 33.4024 315.022 34.9344C314.539 37.349 311.823 38.5707 309.696 37.3299L309.008 36.9282C308.372 36.5573 307.649 36.3619 306.913 36.3619H305.746C303.746 36.3619 301.883 35.345 300.802 33.6627L300.132 32.6208C298.931 30.7522 296.536 30.0545 294.519 30.9854C292.746 31.8038 291.713 33.6819 291.971 35.6178L292.26 37.7864C292.429 39.052 291.847 40.3005 290.77 40.986L289.332 41.9011C288.19 42.6279 288.075 44.2516 289.103 45.1326C289.909 45.8241 290.041 47.023 289.403 47.873L287.162 50.8611C286.432 51.8353 286.037 53.0202 286.037 54.2379C286.037 56.4449 287.327 58.4482 289.336 59.3615L290.036 59.6796C291.018 60.1263 291.863 60.8283 292.482 61.7126L293.227 62.7759C294.303 64.3132 294.251 66.3724 293.099 67.8535C292.136 69.0912 291.928 70.7564 292.557 72.1929L294.292 76.1587C294.776 77.2666 295.594 78.1962 296.631 78.8184L299.485 80.5308C301.988 82.0324 301.924 85.6927 299.409 87.1725C297.781 88.1301 297.094 90.1627 297.838 91.8987C298.736 93.9928 297.575 96.3969 295.377 96.9964L293.45 97.5219C290.679 98.2777 288.959 101.042 289.504 103.862L290.55 109.265C291.062 111.908 289.037 114.362 286.345 114.362C283.072 114.362 281.009 117.883 282.607 120.738L284.371 123.888C285.346 125.629 284.991 127.812 283.515 129.155C281.84 130.677 281.637 133.238 283.051 135.005L285.432 137.98C288.139 141.365 287.258 146.358 283.556 148.611L283.017 148.939C280.649 150.38 279.495 153.194 280.167 155.882L280.817 158.484C281.227 160.124 280.342 161.81 278.759 162.403C277.973 162.698 277.328 163.279 276.953 164.03L274.969 167.996C274.139 169.658 271.795 169.734 270.859 168.129C270.155 166.921 268.555 166.598 267.437 167.437L252.511 178.631C249.465 180.915 247.981 184.731 248.683 188.474L249.378 192.183C250.081 195.93 248.478 199.734 245.306 201.849C242.114 203.977 240.513 207.813 241.245 211.578L242.314 217.073C243.059 220.906 241.505 224.822 238.334 227.101L229.332 233.571C228.165 234.41 226.763 234.862 225.325 234.862C223.84 234.862 222.394 235.344 221.206 236.235L207.15 246.777C207.051 246.851 206.951 246.923 206.849 246.992M381.281 200.591C381.988 201.265 382.546 202.102 382.896 203.052L384.117 206.366C384.72 208.002 385.739 209.451 387.075 210.571L400.537 221.862L419.428 236.705C420.809 237.79 422.452 238.493 424.192 238.741L424.381 238.768C427.039 239.148 429.433 240.581 431.023 242.744L440.033 254.997C440.698 255.901 441.205 256.909 441.535 257.981L444.248 266.799C444.76 268.463 445.795 269.918 447.199 270.948C450.305 273.225 451.377 277.375 449.763 280.872L444.035 293.283C443.807 293.776 443.656 294.298 443.584 294.833M443.584 294.833L441.494 293.671C440.594 293.172 440.036 292.224 440.036 291.195C440.036 289.63 438.768 288.362 437.203 288.362H436.598C435.619 288.362 434.702 287.884 434.141 287.082L432.432 284.641C431.871 283.839 430.953 283.362 429.974 283.362H428.286C427.32 283.362 426.536 284.145 426.536 285.112C426.536 286.078 425.753 286.862 424.786 286.862H423.152C422.746 286.862 422.344 286.944 421.97 287.104L419.036 288.362L411.575 290.995C410.904 291.232 410.34 291.699 409.982 292.313L407.987 295.733C407.406 296.728 406.306 297.303 405.156 297.211L383.841 295.506C382.731 295.417 381.762 294.721 381.323 293.698L379.623 289.73C379.253 288.868 378.502 288.228 377.593 288.001L373.509 286.98C373.196 286.902 372.898 286.774 372.626 286.6L369.732 284.759C368.472 283.957 366.815 284.204 365.843 285.337L365.259 286.019C364.793 286.563 364.536 287.255 364.536 287.972V293.621C364.536 294.697 363.96 295.691 363.025 296.226L362.548 296.498C361.613 297.032 361.036 298.026 361.036 299.103V305.688C361.036 307.212 359.894 308.494 358.38 308.668L350.15 309.618C348.884 309.764 347.849 310.694 347.568 311.937L344.795 324.215C344.629 324.952 344.747 325.725 345.125 326.379L349.087 333.221C349.667 334.223 349.618 335.47 348.962 336.424L345.891 340.891C345.099 342.044 345.208 343.592 346.156 344.622L355.244 354.501C355.754 355.054 356.036 355.779 356.036 356.532V368.008C356.036 369.144 356.678 370.183 357.695 370.691L359.877 371.782C360.617 372.152 361.171 372.811 361.409 373.603L362.408 376.933C362.493 377.217 362.62 377.487 362.785 377.735L363.41 378.672C364.09 379.693 365.324 380.196 366.524 379.943L372.545 378.676C373.482 378.479 374.457 378.741 375.17 379.382L378.181 382.092C378.732 382.587 379.447 382.862 380.188 382.862H380.554C381.488 382.862 382.369 383.297 382.937 384.039L388.322 391.081C388.465 391.268 388.628 391.437 388.81 391.585L400.479 401.093M443.584 294.833C443.553 295.07 443.537 295.31 443.537 295.55C443.537 297.836 442.1 299.875 439.947 300.644L439.305 300.873C437.548 301.501 436.154 302.866 435.49 304.609L433.406 310.081C432.835 311.579 432.633 313.194 432.817 314.787L433.584 321.438C433.875 323.959 433.146 326.477 432.01 328.746C428.929 334.901 425.781 346.189 429.037 359.862C434.037 380.862 425.537 396.862 406.537 399.362H405.068C403.353 399.362 401.729 399.994 400.479 401.093M400.479 401.093C399.912 401.592 399.423 402.186 399.037 402.862C397.8 405.026 395.498 406.362 393.006 406.362H381.337C378.885 406.362 377.075 408.648 377.636 411.034C378.129 413.127 376.789 415.211 374.681 415.633L370.076 416.554C369.059 416.757 368.012 416.769 366.991 416.589L352.675 414.063C351.919 413.929 351.18 413.709 350.474 413.406L344.037 410.648M344.037 410.648L343.76 410.529C340.001 408.918 335.641 409.758 332.749 412.649L331.174 414.224C330.75 414.648 330.289 415.034 329.795 415.375L320.888 421.542C318.789 422.995 317.537 425.385 317.537 427.938C317.537 430.945 315.804 433.682 313.087 434.97L300.57 440.899C300.421 440.969 300.274 441.043 300.129 441.121M300.129 441.121C298.971 441.741 297.945 442.585 297.112 443.604L291.024 451.044C290.076 452.202 289.657 453.705 289.869 455.187L290.066 456.569C290.335 458.45 289.161 460.237 287.328 460.737C285.928 461.119 284.871 462.271 284.612 463.698L284.535 464.122C284.23 465.798 282.996 467.153 281.355 467.613L274.746 469.463C272.702 470.036 270.995 471.444 270.046 473.343L268.076 477.283C267.524 478.388 267.503 479.588 267.886 480.631M267.886 480.631C268.381 481.982 269.554 483.071 271.128 483.349C272.876 483.657 274.246 485.022 274.56 486.769L281.863 527.296C282.985 533.527 278.109 539.219 271.78 539.067L248.478 538.505C245.227 538.427 242.169 539.932 240.244 542.493M240.244 542.493C240.077 542.05 239.807 541.653 239.457 541.335L235.747 537.962C234.993 537.276 233.941 537.021 232.956 537.283L231.128 537.771C229.2 538.285 228.435 540.61 229.682 542.169C230.477 543.163 230.491 544.572 229.714 545.581L226.719 549.474C226.279 550.047 226.06 550.759 226.102 551.48L226.474 557.79C226.514 558.483 226.313 559.169 225.905 559.731L223.828 562.586C223.059 563.643 221.694 564.081 220.453 563.668L207.079 559.209C206.406 558.985 205.675 559.007 205.016 559.27L202.146 560.418C200.321 561.148 198.298 559.956 198.055 558.005L197.696 555.136C197.594 554.322 197.164 553.586 196.505 553.098L187.716 546.587C185.979 545.301 183.493 546.218 183.007 548.323L181.124 556.483C181.066 556.735 181.041 556.993 181.049 557.251L181.49 571.379C181.519 572.294 181.05 573.154 180.264 573.625C179.503 574.082 179.037 574.905 179.037 575.793V577.44C179.037 578.34 178.633 579.192 177.936 579.762L175.548 581.716C174.393 582.661 172.721 582.614 171.621 581.606L168.473 578.72C167.874 578.172 167.079 577.889 166.269 577.937L151.882 578.783C151.026 578.833 150.19 578.515 149.584 577.909L147.064 575.389C146.718 575.043 146.461 574.617 146.317 574.15L145.762 572.343C145.221 570.585 142.972 570.083 141.735 571.444L141.272 571.953C140.415 572.896 138.889 572.728 138.257 571.622C137.833 570.88 136.961 570.519 136.136 570.744L134.957 571.066C133.348 571.504 131.691 570.547 131.266 568.935L127.26 553.712C127.114 553.157 126.812 552.656 126.39 552.267L117.246 543.855C115.847 542.568 113.62 542.889 112.642 544.519L109.58 549.623C108.95 550.673 107.744 551.235 106.534 551.042L97.9087 549.661C96.7652 549.479 95.6186 549.97 94.9626 550.924L92.3295 554.754C91.3552 556.171 89.3914 556.481 88.0282 555.432L78.9596 548.457C78.0834 547.783 76.9075 547.645 75.8994 548.099L68.4685 551.443C67.8643 551.715 67.1871 551.779 66.5425 551.625L57.559 549.486C57.2135 549.404 56.8853 549.261 56.5898 549.064L48.9754 543.988M240.244 542.493C240.001 542.816 239.776 543.156 239.571 543.513L235.422 550.72C234.05 553.103 234.622 556.13 236.769 557.848C238.932 559.578 239.494 562.634 238.09 565.021L237.493 566.036C236.277 568.104 236.217 570.654 237.334 572.776L240.019 577.878C240.359 578.524 240.537 579.243 240.537 579.973V583.011C240.537 584.447 241.902 585.49 243.287 585.112C244.672 584.734 246.037 585.777 246.037 587.212V593.866C246.037 595.89 244.589 597.625 242.597 597.987C241.3 598.223 240.19 599.056 239.6 600.235L236.502 606.431C235.886 607.663 234.789 608.586 233.469 608.982C231.67 609.522 230.325 611.026 229.989 612.874L228.537 620.862L226.403 629.398C226.176 630.306 226.442 631.267 227.104 631.929L227.574 632.399C228.857 633.682 228.218 635.877 226.446 636.271C226.175 636.331 225.896 636.342 225.622 636.303L221.581 635.725C219.928 635.489 218.244 635.789 216.774 636.58L213.842 638.159C213.042 638.59 212.067 638.533 211.322 638.012C209.728 636.896 207.537 638.036 207.537 639.982V642.04C207.537 643.181 206.977 644.249 206.039 644.899L204.529 645.944C202.686 647.22 202.402 649.832 203.927 651.474L204.54 652.134C205.99 653.697 205.436 656.227 203.464 657.039C201.399 657.889 200.92 660.6 202.561 662.115C204.052 663.492 203.822 665.917 202.093 666.981L201.361 667.431C200 668.269 199.394 669.935 199.9 671.451L199.941 671.576C200.538 673.367 199.522 675.295 197.706 675.813L196.39 676.19C195.147 676.545 194.506 677.917 195.031 679.098C195.56 680.289 194.904 681.671 193.647 682.014L192.283 682.386C191.193 682.683 190.028 682.41 189.184 681.66L188.436 680.995C185.411 678.306 180.609 679.962 179.885 683.944L178.264 692.861C177.805 695.387 176.212 697.563 173.943 698.765C170.969 700.339 169.226 703.54 169.518 706.892L169.749 709.554C169.93 711.633 169.109 713.674 167.538 715.048L166.207 716.213C163.982 718.16 163.942 721.609 166.122 723.607C167.321 724.706 167.906 726.324 167.686 727.936L167.406 729.985C166.996 732.992 163.634 734.588 161.045 733.006C159.095 731.814 156.549 732.398 155.313 734.32L154.414 735.719C153.535 737.087 152.131 738.032 150.533 738.331L141.414 740.041C138.656 740.558 136.3 742.336 135.045 744.845L133.138 748.658C132.486 749.964 131.049 750.682 129.613 750.421C127.89 750.108 126.224 751.201 125.826 752.907L125.321 755.072C124.441 758.844 119.508 759.789 117.296 756.609C116.006 754.755 113.536 754.154 111.538 755.208L103.56 759.419C99.6815 761.466 94.9221 760.747 91.8212 757.646L85.9656 751.791C84.0903 749.915 81.5361 748.862 78.8839 748.862C76.4135 748.862 74.0207 747.947 72.1844 746.295L51.9414 728.076C50.6918 726.951 49.1788 726.16 47.5423 725.775L34.4149 722.686C33.5007 722.471 32.6156 722.138 31.8361 721.614C29.2123 719.851 24.8366 716.185 20.818 710.732C19.2699 708.632 19.0333 705.803 18.0926 703.369C17.5779 702.038 16.6421 700.61 15.0368 699.362C13.2139 697.944 12.0833 696.21 11.4112 694.627C10.4381 692.335 9.54756 689.872 7.78677 688.112C6.02597 686.351 5.07586 683.913 4.19954 681.582C3.66377 680.157 2.82123 678.513 1.53677 676.862C-0.813893 673.839 1.05979 666.017 4.87459 666.344C4.92776 666.349 4.98181 666.355 5.03677 666.362C6.00959 666.483 6.85302 666.361 7.56988 666.1C10.062 665.192 9.94908 661.635 11.5083 659.489C11.8896 658.965 12.3891 658.417 13.0367 657.862C16.5367 654.862 20.0367 654.862 22.5367 656.862C24.1293 658.136 27.3072 658.226 29.5457 658.042C30.5389 657.96 31.5963 657.656 32.0023 656.746C32.3321 656.006 32.4763 654.901 32.0367 653.362C31.7956 652.518 31.7906 651.774 31.9288 651.133C32.3925 648.98 34.0367 646.971 34.0367 644.77V643.776C34.0367 642.871 34.3964 642.002 35.0367 641.362C35.677 640.722 36.0367 639.853 36.0367 638.948V638.853C36.0367 637.351 35.1146 636.003 33.7147 635.459L30.4723 634.198C28.7302 633.52 28.0928 631.383 29.1793 629.862C29.4149 629.532 29.5778 629.156 29.6573 628.759L30.7287 623.402C30.9265 622.413 30.7389 621.385 30.2043 620.53L29.5381 619.464C28.9519 618.526 29.0907 617.308 29.8728 616.526C30.5729 615.826 30.7653 614.765 30.3556 613.863L29.5894 612.178C28.9273 610.721 28.9951 609.037 29.7721 607.638L30.4457 606.426C30.8373 605.721 31.1172 604.959 31.2754 604.169C31.7548 601.771 31.0115 599.275 30.1901 596.972C29.3612 594.648 28.8294 591.37 29.5367 587.362C29.8482 585.96 31.1495 582.462 33.9302 579.072C34.3242 578.592 34.7074 578.099 34.9776 577.54C36.386 574.624 37.7927 568.789 34.5367 563.362C31.7011 558.636 32.4019 556.288 33.5603 555.341C34.1253 554.88 34.9048 554.862 35.6344 554.862H40.5738C42.7765 554.862 44.874 553.92 46.3373 552.274L48.6549 549.666C50.109 548.031 50.1633 545.671 48.9754 543.988M48.9754 543.988C48.6874 543.58 48.3264 543.212 47.8946 542.903C46.209 541.699 45.5425 539.513 46.2699 537.573L46.8867 535.929C47.5968 534.035 47.2274 531.905 45.9211 530.362C44.0182 528.113 44.1899 524.772 46.3135 522.73L53.4045 515.912C54.7726 514.597 56.5968 513.862 58.4947 513.862C60.4425 513.862 62.3104 513.088 63.6877 511.711L64.9773 510.421C65.6721 509.727 66.1784 508.866 66.4483 507.921L66.7776 506.769C67.473 504.335 70.0098 502.926 72.4436 503.621C74.0441 504.078 75.7667 503.632 76.9436 502.455L77.3535 502.045C79.2102 500.188 79.5176 497.287 78.0912 495.082L76.5334 492.675C75.6724 491.344 75.9113 489.584 77.0959 488.532C77.6118 488.073 77.9445 487.486 78.0896 486.862M78.0896 486.862C78.3216 485.864 78.0732 484.771 77.3256 483.959L69.6094 475.571C68.5747 474.447 67.8115 473.1 67.3785 471.634L61.9465 453.249C61.6747 452.329 61.5367 451.375 61.5367 450.415V450.253C61.5367 447.167 62.9614 444.254 65.3973 442.359L68.4858 439.957C69.8307 438.911 71.4206 438.226 73.1047 437.967L75.4107 437.612C76.4721 437.449 77.4637 436.982 78.2663 436.269C80.1861 434.562 80.6912 431.765 79.4894 429.495L79.2181 428.982C77.9215 426.533 78.3739 423.525 80.3335 421.565L81.3283 420.57C82.7423 419.156 83.5367 417.238 83.5367 415.239C83.5367 413.692 84.0126 412.182 84.8997 410.915L85.2867 410.362C86.4257 408.735 87.0367 406.796 87.0367 404.81V397.136C87.0367 395.009 86.3585 392.937 85.1007 391.222L83.4726 389.002C82.2149 387.287 81.5367 385.215 81.5367 383.088V379.629M81.5367 379.629L86.7901 381.029C87.5859 381.242 88.4339 381.117 89.1354 380.686L92.9841 378.317C93.9379 377.73 95.1394 377.724 96.0998 378.3L98.8241 379.934C99.2903 380.214 99.8238 380.362 100.368 380.362H104.676C105.238 380.362 105.789 380.52 106.266 380.818L108.473 382.197C109.153 382.622 109.976 382.757 110.757 382.571L119.261 380.547C119.769 380.426 120.3 380.439 120.802 380.587L128.537 382.862L136.7 385.719C137.817 386.11 138.6 387.122 138.698 388.301L139.427 397.041C139.497 397.882 139.918 398.655 140.587 399.17L144.866 402.461C145.604 403.029 146.037 403.908 146.037 404.839V407.008C146.037 408.144 146.679 409.183 147.695 409.691L149.809 410.748C150.588 411.138 151.499 411.169 152.304 410.834L156.483 409.093C156.848 408.94 157.241 408.862 157.637 408.862H160.157C161.033 408.862 161.865 409.245 162.435 409.91L163.416 411.055C164.11 411.864 165.182 412.245 166.231 412.054L169.77 411.41C169.948 411.378 170.127 411.362 170.307 411.362H173.794C174.59 411.362 175.353 411.046 175.915 410.483L176.658 409.741C177.221 409.178 177.537 408.415 177.537 407.619V389.862C177.537 389.213 177.747 388.581 178.137 388.062L181.437 383.662C181.826 383.143 182.037 382.511 182.037 381.862V378.391C182.037 377.724 182.259 377.076 182.669 376.549L184.551 374.129C185.167 373.337 185.346 372.29 185.029 371.339L184.001 368.254C183.708 367.376 183.837 366.411 184.351 365.641L184.498 365.42C185.134 364.467 185.17 363.234 184.593 362.244L165.284 329.143C164.813 328.336 163.992 327.794 163.065 327.678L148.984 325.918C148.687 325.881 148.398 325.799 148.125 325.677L139.891 321.971C139.037 321.587 138.054 321.623 137.231 322.069L128.3 326.906C127.233 327.485 125.922 327.363 124.98 326.597L120.355 322.839C119.286 321.971 117.764 321.941 116.663 322.767L113.192 325.371C112.763 325.692 112.256 325.893 111.723 325.952L104.993 326.7C104.074 326.802 103.253 327.322 102.769 328.109L101.167 330.712C100.276 332.16 98.3622 332.579 96.9481 331.636L95.4856 330.661C94.3402 329.898 92.822 330.011 91.8034 330.938L88.7297 333.732C88.2784 334.142 87.7127 334.405 87.1082 334.486L83.0085 335.032M81.5367 379.629V378.292C81.5367 377.369 81.8667 376.477 82.4672 375.776C83.6695 374.374 83.711 372.316 82.5662 370.866L80.4837 368.228C78.6001 365.842 79.0713 362.37 81.5226 360.572C83.3341 359.244 84.127 356.928 83.5099 354.768L80.1958 343.169C79.8136 341.831 80.4383 340.411 81.6826 339.789C82.7909 339.235 83.4228 338.036 83.2534 336.808L83.0085 335.032M83.0085 335.032L81.9904 327.651C81.6959 325.516 82.0994 323.342 83.1409 321.454L87.6456 313.29C88.813 311.174 88.7427 308.591 87.4619 306.542L87.2167 306.15C85.6622 303.663 86.0971 300.421 88.2523 298.432C89.9575 296.858 90.6223 294.453 89.9675 292.227L89.2347 289.735C88.8149 288.308 89.3256 286.77 90.5156 285.878C91.7264 284.97 92.2317 283.396 91.7759 281.953L91.3707 280.67C90.3916 277.569 92.3206 274.305 95.5088 273.667L97.0367 273.362L108.611 269.658C109.217 269.464 109.864 269.437 110.483 269.58C113.039 270.17 115.324 267.869 114.717 265.318L114.636 264.98C114.075 262.624 115.862 260.362 118.284 260.362H121.353C121.804 260.362 122.25 260.267 122.662 260.084C124.61 259.218 125.196 256.734 123.841 255.089L123.325 254.462C121.55 252.307 122.596 249.038 125.292 248.312L130.04 247.034C131.593 246.616 133.251 247.029 134.427 248.126L135.008 248.669C137.298 250.806 141.039 249.753 141.878 246.735C142.284 245.271 143.454 244.143 144.932 243.792L150.023 242.58C151.986 242.112 154.045 242.25 155.929 242.974L157.216 243.469C158.71 244.044 160.364 244.044 161.858 243.469L162.628 243.173C164.679 242.384 167.003 242.949 168.463 244.592L168.705 244.864C169.552 245.817 170.766 246.362 172.041 246.362C173.311 246.362 174.521 246.903 175.367 247.849L176.483 249.096C179.723 252.717 185.382 252.746 188.658 249.157L188.809 248.993C191.289 246.276 195.308 245.611 198.531 247.384C201.165 248.833 204.38 248.671 206.849 246.992M217.143 496.168L200.62 520.317C199.545 521.888 200.185 524.049 201.942 524.781L209.698 528.012C210.245 528.24 210.712 528.625 211.041 529.118L212.646 531.526C213.203 532.361 214.139 532.862 215.142 532.862H217.38C217.813 532.862 218.24 532.955 218.633 533.136L228.758 537.791C229.547 538.154 230.455 538.157 231.246 537.799L235.537 535.862L239.639 533.401C240.22 533.052 240.666 532.516 240.904 531.881L243.351 525.358C243.474 525.03 243.654 524.726 243.882 524.459L253.882 512.792C254.778 511.747 254.604 510.162 253.503 509.336L253.448 509.295C252.402 508.511 252.213 507.017 253.029 505.996C253.358 505.586 253.537 505.075 253.537 504.549V497.862C253.537 496.205 252.194 494.862 250.537 494.862H219.619C218.629 494.862 217.702 495.35 217.143 496.168Z" stroke="#A6C1E9"/>
</svg>
