<svg width="247" height="225" viewBox="0 0 247 225" fill="none" xmlns="http://www.w3.org/2000/svg">
<path d="M20.818 174.05C24.8366 179.502 29.2123 183.169 31.8361 184.932C32.6156 185.456 33.5007 185.789 34.4149 186.004L47.5423 189.093C49.1788 189.478 50.6918 190.269 51.9414 191.394L72.1844 209.613C74.0207 211.265 76.4135 212.18 78.8839 212.18C81.5361 212.18 84.0903 213.233 85.9656 215.109L91.8212 220.964C94.9221 224.065 99.6815 224.784 103.56 222.737L111.538 218.526C113.536 217.472 116.006 218.073 117.296 219.927C119.508 223.107 124.441 222.162 125.321 218.39L125.826 216.225C126.224 214.519 127.89 213.426 129.613 213.739C131.049 214 132.486 213.282 133.138 211.976L135.045 208.163C136.3 205.654 138.656 203.876 141.414 203.359L150.533 201.649C152.131 201.35 153.535 200.405 154.414 199.037L155.313 197.638C156.549 195.716 159.095 195.132 161.045 196.324C163.634 197.906 166.996 196.31 167.406 193.303L167.686 191.254C167.906 189.642 167.321 188.024 166.122 186.924C163.942 184.926 163.982 181.478 166.207 179.531L167.538 178.366C169.109 176.992 169.93 174.951 169.749 172.872L169.518 170.21C169.226 166.858 170.969 163.657 173.943 162.082C176.212 160.881 177.805 158.705 178.264 156.179L179.885 147.262C180.609 143.28 185.411 141.624 188.436 144.313L189.184 144.978C190.028 145.728 191.193 146.001 192.283 145.704L193.647 145.332C194.904 144.989 195.56 143.607 195.031 142.416C194.506 141.235 195.147 139.863 196.39 139.507L197.706 139.131C199.522 138.613 200.538 136.685 199.941 134.894L199.9 134.769C199.394 133.252 200 131.587 201.361 130.749L202.093 130.299C203.822 129.235 204.052 126.81 202.561 125.433C200.92 123.918 201.399 121.207 203.464 120.357C205.436 119.545 205.99 117.015 204.54 115.452L203.927 114.792C202.402 113.15 202.686 110.538 204.529 109.262L206.039 108.217C206.977 107.567 207.537 106.499 207.537 105.358V103.3C207.537 101.354 209.728 100.213 211.322 101.329C212.067 101.851 213.042 101.908 213.842 101.477L216.774 99.8981C218.244 99.1068 219.928 98.8072 221.581 99.0432L225.622 99.6205C225.896 99.6597 226.175 99.6489 226.446 99.5888C228.218 99.195 228.857 97.0001 227.574 95.7166L227.104 95.2468C226.442 94.5848 226.176 93.624 226.403 92.7158L228.537 84.1798L229.989 76.1918C230.325 74.3435 231.67 72.8399 233.469 72.3001C234.789 71.9042 235.886 70.9811 236.502 69.7489L239.6 63.553C240.19 62.3738 241.3 61.541 242.597 61.3051C244.589 60.943 246.037 59.2083 246.037 57.184V50.5302C246.037 49.0946 244.672 48.052 243.287 48.4298C241.902 48.8075 240.537 47.7649 240.537 46.3293V43.2911C240.537 42.5612 240.359 41.8423 240.019 41.1963L237.334 36.0944C236.217 33.9715 236.277 31.4217 237.493 29.3538L238.09 28.3386C239.494 25.9516 238.932 22.8956 236.769 21.1656C234.622 19.448 234.05 16.4204 235.422 14.0376L239.571 6.83041C239.776 6.47434 240.001 6.13403 240.244 5.81056C240.077 5.36833 239.807 4.97131 239.457 4.65249L235.747 1.28024C234.993 0.594325 233.941 0.338609 232.956 0.601343L231.57 0.971068L231.128 1.08877C230.899 1.14984 230.687 1.23645 230.492 1.3443C229.047 2.14448 228.583 4.11338 229.682 5.48654C230.477 6.48073 230.491 7.88955 229.714 8.89871L226.719 12.7924C226.279 13.3648 226.06 14.0768 226.102 14.7977L226.474 21.1078C226.514 21.801 226.313 22.4868 225.905 23.0484L223.828 25.9039C223.059 26.9614 221.694 27.3989 220.453 26.9854L207.079 22.5274C206.406 22.303 205.675 22.3245 205.016 22.588L202.146 23.7363C200.321 24.4663 198.298 23.2734 198.055 21.323L197.696 18.4541C197.594 17.6403 197.164 16.9037 196.505 16.4156L187.716 9.9053C185.979 8.61883 183.493 9.53542 183.007 11.6414L181.124 19.8006C181.066 20.0524 181.041 20.3107 181.049 20.5689L181.49 34.6966C181.519 35.6124 181.05 36.472 180.264 36.9434C179.503 37.4003 179.037 38.2232 179.037 39.1113V40.7583C179.037 41.6581 178.633 42.5103 177.936 43.0801L175.548 45.0343C174.393 45.9788 172.721 45.9318 171.621 44.9239L168.473 42.0378C167.874 41.4894 167.079 41.2068 166.269 41.2544L151.882 42.1008C151.026 42.1511 150.19 41.8332 149.584 41.2273L147.064 38.7068C146.717 38.3608 146.461 37.9354 146.317 37.4677L145.762 35.6612C145.221 33.9029 142.972 33.4009 141.735 34.7621L141.272 35.2713C140.415 36.2135 138.889 36.0459 138.257 34.9404C137.833 34.1983 136.961 33.837 136.136 34.0619L134.957 34.3834C133.348 34.8222 131.691 33.8651 131.266 32.2526L127.26 17.0294C127.114 16.4747 126.812 15.9735 126.39 15.5851L117.246 7.17257C115.847 5.88588 113.62 6.20728 112.642 7.83688L109.58 12.9406C108.95 13.9913 107.744 14.553 106.534 14.3594L97.9087 12.9794C96.7652 12.7964 95.6186 13.2879 94.9626 14.2422L92.3295 18.072C91.3552 19.4892 89.3914 19.7989 88.0282 18.7503L78.9596 11.7745C78.0834 11.1005 76.9075 10.963 75.8994 11.4167L68.4685 14.7605C67.8643 15.0324 67.1871 15.0967 66.5425 14.9432L57.559 12.8043C57.2135 12.722 56.8853 12.579 56.5898 12.382L48.9754 7.30577C50.1633 8.98857 50.109 11.3484 48.6549 12.9843L46.3373 15.5916C44.874 17.2379 42.7765 18.1798 40.5738 18.1798H35.6344C34.9048 18.1798 34.1253 18.1975 33.5603 18.6592C32.4019 19.606 31.7011 21.9538 34.5367 26.6798C37.7927 32.1065 36.386 37.9422 34.9776 40.8575C34.7074 41.4168 34.3242 41.9098 33.9302 42.3901C31.1495 45.7802 29.8482 49.278 29.5367 50.6798C28.8294 54.6876 29.3612 57.966 30.1901 60.2897C31.0115 62.5924 31.7548 65.0891 31.2754 67.4865C31.1172 68.2772 30.8373 69.0387 30.4457 69.7436L29.7721 70.956C28.9951 72.3547 28.9273 74.039 29.5894 75.4956L30.3556 77.1813C30.7653 78.0827 30.5729 79.1436 29.8728 79.8437C29.0907 80.6258 28.9519 81.8441 29.5381 82.7821L30.2043 83.8479C30.7389 84.7033 30.9265 85.7307 30.7287 86.7199L29.6573 92.0767C29.5778 92.4743 29.4149 92.8503 29.1793 93.1802C28.0928 94.7012 28.7302 96.8383 30.4723 97.5158L33.7147 98.7768C35.1146 99.3212 36.0367 100.669 36.0367 102.171V102.266C36.0367 103.171 35.677 104.04 35.0367 104.68C34.3964 105.32 34.0367 106.188 34.0367 107.094V108.087C34.0367 110.289 32.3925 112.298 31.9288 114.451C31.7906 115.092 31.7956 115.836 32.0367 116.68C32.4763 118.219 32.3321 119.324 32.0023 120.064C31.5963 120.974 30.5389 121.278 29.5457 121.36C27.3072 121.544 24.1293 121.454 22.5367 120.18C20.0367 118.18 16.5367 118.18 13.0367 121.18C12.3891 121.735 11.8896 122.283 11.5083 122.807C9.94908 124.953 10.062 128.51 7.56988 129.418C6.85302 129.679 6.00959 129.801 5.03677 129.679C4.98181 129.673 4.92776 129.667 4.87459 129.662C1.05979 129.335 -0.813893 137.157 1.53677 140.179C2.82123 141.831 3.66377 143.475 4.19954 144.9C5.07586 147.231 6.02597 149.669 7.78677 151.429C9.54756 153.19 10.4381 155.653 11.4112 157.945C12.0833 159.528 13.2139 161.262 15.0368 162.679C16.6421 163.928 17.5779 165.355 18.0926 166.687C19.0333 169.121 19.2699 171.95 20.818 174.05Z" fill="white" stroke="#A6C1E9"/>
</svg>
