<svg width="187" height="143" viewBox="0 0 187 143" fill="none" xmlns="http://www.w3.org/2000/svg">
<path d="M2.78675 95.3339L2.16995 96.9786C1.44261 98.9182 2.10906 101.104 3.79468 102.309C4.22648 102.617 4.5875 102.985 4.8755 103.393L12.4899 108.469C12.7854 108.666 13.1136 108.809 13.4591 108.892L22.4426 111.031C23.0871 111.184 23.7644 111.12 24.3686 110.848L31.7995 107.504C32.8076 107.05 33.9835 107.188 34.8597 107.862L43.9283 114.838C45.2914 115.886 47.2553 115.577 48.2296 114.159L50.8626 110.33C51.5187 109.375 52.6653 108.884 53.8087 109.067L62.4338 110.447C63.6438 110.64 64.8498 110.079 65.4803 109.028L68.5425 103.924C69.5202 102.295 71.7476 101.973 73.1461 103.26L82.2902 111.672C82.7123 112.061 83.0143 112.562 83.1602 113.117L87.1664 128.34C87.5907 129.952 89.2484 130.91 90.8569 130.471L92.0361 130.149C92.8606 129.924 93.7329 130.286 94.157 131.028C94.7887 132.133 96.3152 132.301 97.1717 131.359L97.6347 130.849C98.8721 129.488 101.121 129.99 101.662 131.749L102.218 133.555C102.361 134.023 102.618 134.448 102.964 134.794L105.484 137.315C106.09 137.921 106.926 138.238 107.782 138.188L122.169 137.342C122.979 137.294 123.774 137.577 124.373 138.125L127.521 141.011C128.621 142.019 130.294 142.066 131.448 141.122L133.836 139.167C134.533 138.598 134.937 137.745 134.937 136.846V135.199C134.937 134.311 135.403 133.488 136.164 133.031C136.95 132.559 137.419 131.7 137.39 130.784L136.949 116.656C136.941 116.398 136.966 116.14 137.024 115.888L138.907 107.729C139.393 105.623 141.879 104.706 143.616 105.993L152.405 112.503C153.064 112.991 153.494 113.728 153.596 114.541L153.955 117.41C154.198 119.361 156.221 120.554 158.046 119.824L160.916 118.675C161.575 118.412 162.306 118.39 162.979 118.615L176.353 123.073C177.594 123.486 178.959 123.049 179.728 121.991L181.805 119.136C182.213 118.574 182.414 117.888 182.374 117.195L182.002 110.885C181.96 110.164 182.179 109.452 182.619 108.88L185.615 104.986C186.391 103.977 186.377 102.568 185.582 101.574C184.483 100.201 184.947 98.2319 186.392 97.4317C185.809 97.5262 185.205 97.4476 184.658 97.1961L174.533 92.5413C174.14 92.3606 173.713 92.2671 173.28 92.2671H171.042C170.039 92.2671 169.103 91.7658 168.546 90.9312L166.941 88.5229C166.612 88.0301 166.145 87.6455 165.598 87.4177L157.842 84.1859C156.086 83.4541 155.445 81.293 156.52 79.7226L170.874 58.7429L160.021 54.4959C159.636 54.3451 159.286 54.1162 158.993 53.8235L157.345 52.1758C157.075 51.9059 156.859 51.587 156.709 51.2362L156.216 50.0855C155.743 48.9824 154.659 48.2672 153.459 48.2672H151.016C149.765 48.2672 148.646 47.4915 148.207 46.3206L146.762 42.468C146.277 41.1755 144.973 40.3806 143.602 40.5419L132.004 41.9064C130.325 42.104 128.814 40.8751 128.665 39.1906L127.606 27.182C127.503 26.015 128.088 24.8948 129.106 24.3136L132.925 22.131C133.86 21.5969 134.437 20.6028 134.437 19.5263V15.779C134.437 14.3256 133.395 13.0812 131.964 12.8257L121.364 10.9329C120.76 10.8251 120.204 10.5347 119.77 10.101L111.048 1.37872C110.352 0.682624 109.359 0.372332 108.39 0.548433L104.703 1.21887C104.526 1.25107 104.346 1.26724 104.166 1.26724H103.437H97.5508C96.283 1.26724 95.152 2.06426 94.7256 3.25824L90.9317 13.8813C90.6195 14.7555 89.9201 15.4359 89.0377 15.7241L66.6847 23.023C66.1943 23.1831 65.6709 23.2141 65.1651 23.1129L60.4852 22.1769C59.254 21.9307 57.9998 22.4771 57.3418 23.5464L55.1142 27.1663C54.6817 27.869 53.9789 28.3626 53.1711 28.5309L44.5982 30.3169C43.3125 30.5848 42.3505 31.6577 42.224 32.9649L41.199 43.5562C41.0502 45.094 39.7579 46.2672 38.213 46.2672H33.9897C33.8446 46.8912 33.5118 47.4782 32.9959 47.9368C31.8114 48.9897 31.5725 50.7496 32.4335 52.0802L33.9912 54.4877C35.4177 56.6922 35.1103 59.5936 33.2536 61.4503L32.8437 61.8602C31.6667 63.0372 29.9442 63.4836 28.3437 63.0263C25.9098 62.3309 23.373 63.7402 22.6776 66.1741L22.3484 67.3266C22.0784 68.2714 21.5722 69.1318 20.8774 69.8266L19.5878 71.1161C18.2105 72.4934 16.3425 73.2672 14.3948 73.2672C12.4968 73.2672 10.6726 74.0019 9.30454 75.3174L2.21353 82.1356C0.089975 84.1776 -0.0817856 87.5179 1.82114 89.7668C3.12747 91.3107 3.49685 93.4402 2.78675 95.3339Z" fill="white" stroke="#A6C1E9"/>
</svg>
